<svg xmlns="http://www.w3.org/2000/svg" xmlns:xlink="http://www.w3.org/1999/xlink" width="350" height="600" viewBox="0 0 350 600"><defs><linearGradient id="a" x1="-0.898" y1="0.932" x2="-0.675" y2="-0.163" gradientUnits="objectBoundingBox"><stop offset="0" stop-color="#09005d"/><stop offset="1" stop-color="#1a0f91"/></linearGradient><linearGradient id="b" x1="-0.284" y1="-1.658" x2="-1.176" y2="3.408" xlink:href="#a"/><clipPath id="d"><rect width="350" height="600"/></clipPath></defs><g id="c" clip-path="url(#d)"><rect width="350" height="600" fill="#fff"/><g transform="translate(-709 -1)"><path d="M-628.088-1496.53c77.25.468,118.6-40.115,148.082-49.734,32.7-10.669,86.972-16.269,98.889,47.005s-19.043,73.178-47.624,93.178-87.759,41.16-136.1,51.834c-17.261,3.812-40.2,6.073-63.25,6.2Z" transform="translate(1328.088 1703)" fill="#f7f6fd"/><path d="M1217.776,461.135h46.176a9.809,9.809,0,1,0,0-19.612,10.179,10.179,0,0,0-5.506,1.6,9.726,9.726,0,0,0-16.158-9.484,7.958,7.958,0,1,0-15.067,4.843q-.239-.016-.483-.016a7.117,7.117,0,0,0-6.807,9.184,6.913,6.913,0,1,0-2.155,13.482Z" transform="translate(-461.406 -365.258)" fill="#d1c9e8" fill-rule="evenodd" opacity="0.3"/><g transform="translate(40 -40)"><path d="M1087.809,276l1.67,10.139,10.139,1.67-10.139,1.67-1.67,10.139-1.67-10.139L1076,287.809l10.139-1.67Z" transform="translate(-350.283 -106.952)" fill="#d1c9e8" fill-rule="evenodd" opacity="0.5"/><path d="M1388.809,168l1.67,10.139,10.139,1.67-10.139,1.67-1.67,10.139-1.67-10.139L1377,179.809l10.139-1.67Z" transform="translate(-420.476 -92.579)" fill="#d1c9e8" fill-rule="evenodd" opacity="0.5"/><path d="M1144.207,137.225l1.095,6.645,6.645,1.095-6.645,1.095-1.095,6.645-1.095-6.645-6.645-1.095,6.645-1.095Z" transform="translate(-363.832 -91.433)" fill="#d1c9e8" fill-rule="evenodd" opacity="0.5"/><path d="M1160.207,545.225l1.095,6.645,6.645,1.094-6.645,1.095-1.095,6.645-1.095-6.645-6.645-1.095,6.645-1.094Z" transform="translate(-367.503 -143.307)" fill="#d1c9e8" fill-rule="evenodd" opacity="0.5"/><path d="M1325.207,444.225l1.095,6.645,6.645,1.095-6.645,1.095-1.095,6.645-1.094-6.645-6.645-1.095,6.645-1.095Z" transform="translate(-409.429 -129.751)" fill="#d1c9e8" fill-rule="evenodd" opacity="0.5"/><path d="M1391.207,288.225l1.095,6.645,6.645,1.095-6.645,1.095-1.095,6.645-1.095-6.645-6.645-1.095,6.645-1.095Z" transform="translate(-421.676 -108.813)" fill="#d1c9e8" opacity="0.5"/></g></g><g transform="translate(-704 -28)"><text transform="translate(820 439)" fill="#57419d" font-size="22" font-family="AirbnbCerealApp-Medium, Airbnb Cereal App" font-weight="500"><tspan x="0" y="0">Stay Private</tspan></text><g transform="translate(717)"><path d="M23,15.5A7.5,7.5,0,1,1,15.5,8,7.5,7.5,0,0,1,23,15.5Zm-8.368,3.971L20.2,13.907a.484.484,0,0,0,0-.684l-.684-.684a.484.484,0,0,0-.684,0L14.29,17.076l-2.119-2.119a.484.484,0,0,0-.684,0l-.684.684a.484.484,0,0,0,0,.684l3.145,3.145a.484.484,0,0,0,.684,0Z" transform="translate(29 514)" fill="#57419d"/><text transform="translate(70 528)" fill="#57419d" font-size="11" font-family="AirbnbCerealApp-Book, Airbnb Cereal App"><tspan x="0" y="0">You can access it on other devices too that </tspan><tspan x="0" y="14">have Chrome Sync tuned on.</tspan></text></g><g transform="translate(717 -51)"><text transform="translate(70 529)" fill="#57419d" font-size="11" font-family="AirbnbCerealApp-Book, Airbnb Cereal App"><tspan x="0" y="0">Your data is not sent to Kuhu servers and </tspan><tspan x="0" y="14">stays private with you in the Chrome Sync </tspan><tspan x="0" y="28">storage. </tspan></text><path d="M23,15.5A7.5,7.5,0,1,1,15.5,8,7.5,7.5,0,0,1,23,15.5Zm-8.368,3.971L20.2,13.907a.484.484,0,0,0,0-.684l-.684-.684a.484.484,0,0,0-.684,0L14.29,17.076l-2.119-2.119a.484.484,0,0,0-.684,0l-.684.684a.484.484,0,0,0,0,.684l3.145,3.145a.484.484,0,0,0,.684,0Z" transform="translate(29 514)" fill="#57419d"/></g><g transform="translate(754.727 11)"><path d="M11.273,8a3.273,3.273,0,1,0,3.273,3.273A3.272,3.272,0,0,0,11.273,8Z" transform="translate(101.5 551)" fill="none" stroke="#bbb5cc" stroke-width="1"/><path d="M11.273,8a3.273,3.273,0,1,0,3.273,3.273A3.272,3.272,0,0,0,11.273,8Z" transform="translate(114.5 551)" fill="#fff" stroke="#bbb5cc" stroke-width="1"/><path d="M11.273,8a3.273,3.273,0,1,0,3.273,3.273A3.272,3.272,0,0,0,11.273,8Z" transform="translate(128.5 551)" fill="#bbb5cc" stroke="#bbb5cc" stroke-width="1"/></g></g><g transform="translate(-708.416 -25.968)"><g transform="translate(762.05 175.571)"><g transform="translate(40 30)"><g transform="translate(0 31.197)"><path d="M2365.079,1113.287a.192.192,0,0,1-.094-.024.194.194,0,0,1-.075-.264q.188-.337.364-.679a.194.194,0,1,1,.345.178q-.179.347-.369.69A.194.194,0,0,1,2365.079,1113.287Z" transform="translate(-2316.693 -1105.495)" fill="#91b3fa"/><path d="M1569.111,1068.32l-.344,0a.194.194,0,0,1,0-.388h0c.5.007,1.01,0,1.511-.024a.2.2,0,0,1,.2.185.194.194,0,0,1-.185.2C1569.907,1068.311,1569.507,1068.32,1569.111,1068.32Zm-2.811-.151h-.021c-.507-.055-1.019-.125-1.52-.209a.194.194,0,1,1,.064-.383c.494.083,1,.152,1.5.206a.194.194,0,0,1-.021.387Zm6.456-.1a.194.194,0,0,1-.027-.387c.5-.07,1-.156,1.49-.255a.194.194,0,0,1,.077.381c-.5.1-1.008.187-1.512.259Zm-10.382-.628a.193.193,0,0,1-.05-.007c-.492-.131-.987-.279-1.47-.439a.194.194,0,0,1,.122-.369c.476.157.963.3,1.448.433a.194.194,0,0,1-.05.382Zm14.284-.232a.194.194,0,0,1-.056-.38c.481-.146.963-.308,1.433-.481a.194.194,0,1,1,.134.365c-.477.176-.967.34-1.455.488A.2.2,0,0,1,1576.658,1067.2Zm-18.052-1.092a.193.193,0,0,1-.078-.016c-.467-.206-.933-.428-1.385-.66a.194.194,0,0,1,.177-.346c.445.229.9.447,1.364.65a.194.194,0,0,1-.079.372Zm21.774-.358a.194.194,0,0,1-.084-.369c.452-.218.9-.452,1.342-.7a.194.194,0,1,1,.189.339c-.446.248-.9.486-1.363.707A.193.193,0,0,1,1580.38,1065.754Zm-25.292-1.53a.192.192,0,0,1-.1-.031c-.429-.275-.855-.566-1.266-.866a.194.194,0,1,1,.229-.314c.4.3.825.582,1.247.853a.194.194,0,0,1-.105.358Zm28.746-.477a.194.194,0,0,1-.111-.354c.413-.285.824-.586,1.219-.895a.194.194,0,1,1,.239.307c-.4.313-.818.619-1.238.908A.2.2,0,0,1,1583.834,1063.746Zm-31.93-1.931a.194.194,0,0,1-.129-.049c-.38-.337-.757-.69-1.119-1.05a.194.194,0,1,1,.274-.276c.357.355.728.7,1.1,1.034a.194.194,0,0,1-.129.34Zm35.038-.583a.194.194,0,0,1-.133-.336c.365-.345.725-.7,1.069-1.069a.194.194,0,1,1,.283.267c-.349.37-.714.735-1.085,1.084A.2.2,0,0,1,1586.941,1061.232Zm-37.819-2.285a.194.194,0,0,1-.15-.07c-.325-.391-.644-.8-.947-1.207a.194.194,0,1,1,.313-.231c.3.4.613.8.933,1.189a.194.194,0,0,1-.149.318Zm40.507-.669a.194.194,0,0,1-.153-.313c.309-.4.61-.808.893-1.219a.194.194,0,1,1,.32.22c-.288.418-.593.835-.907,1.238A.194.194,0,0,1,1589.629,1058.278Zm-42.822-2.587a.194.194,0,0,1-.167-.094c-.263-.438-.516-.889-.751-1.338a.194.194,0,1,1,.344-.18c.231.443.48.886.74,1.318a.194.194,0,0,1-.166.294Zm-1.786-3.573a.194.194,0,0,1-.18-.121c-.192-.473-.372-.957-.535-1.438a.194.194,0,1,1,.368-.125c.16.474.338.95.527,1.417a.194.194,0,0,1-.18.267Z" transform="translate(-1543.447 -1047.154)" fill="#91b3fa"/><path d="M1529.92,996.891a.194.194,0,0,1-.189-.15q-.089-.381-.167-.764a.194.194,0,1,1,.38-.077q.077.377.165.753a.194.194,0,0,1-.145.233A.2.2,0,0,1,1529.92,996.891Z" transform="translate(-1529.559 -995.744)" fill="#91b3fa"/></g><g transform="translate(5.393 6.206)"><path d="M1663.263,581.973a.312.312,0,0,0-.187-.31l-3.482-1.513a16.537,16.537,0,0,0-1.658-5.095l1.921-3.271a.312.312,0,0,0-.032-.361l-2.96-3.46a.312.312,0,0,0-.351-.087l-3.529,1.392a16.534,16.534,0,0,0-4.776-2.427l-.955-3.674a.312.312,0,0,0-.278-.232l-4.54-.354a.312.312,0,0,0-.31.187l-1.513,3.482a16.54,16.54,0,0,0-5.095,1.658l-3.271-1.921a.312.312,0,0,0-.361.032l-3.46,2.96a.312.312,0,0,0-.087.351l1.392,3.529a16.536,16.536,0,0,0-2.427,4.776l-3.674.955a.312.312,0,0,0-.232.278l-.354,4.54a.312.312,0,0,0,.187.31l3.482,1.513a16.536,16.536,0,0,0,1.658,5.095l-1.921,3.271a.312.312,0,0,0,.032.361l2.96,3.46a.312.312,0,0,0,.351.087l3.529-1.392a16.535,16.535,0,0,0,4.776,2.427l.955,3.674a.312.312,0,0,0,.278.232l4.54.354a.312.312,0,0,0,.31-.187l1.513-3.482a16.537,16.537,0,0,0,5.095-1.658l3.271,1.922a.311.311,0,0,0,.36-.032l3.46-2.96a.312.312,0,0,0,.088-.351l-1.392-3.529a16.539,16.539,0,0,0,2.427-4.776l3.674-.955a.312.312,0,0,0,.233-.278Z" transform="translate(-1623.043 -562.58)" fill="#d1c9e8"/><path d="M1900.839,844.685a4.348,4.348,0,1,1,.74-.063A4.388,4.388,0,0,1,1900.839,844.685Zm.017-8.088a3.8,3.8,0,0,0-.641.055,3.752,3.752,0,1,0,2.8.636h0A3.725,3.725,0,0,0,1900.856,836.6Z" transform="translate(-1880.738 -820.239)" fill="#fff" opacity="0.7"/><path d="M1785.73,738.217q-.445,0-.894-.035a11.28,11.28,0,0,1-10.4-11.226q0-.445.035-.894a11.279,11.279,0,0,1,19.815-6.455,11.344,11.344,0,0,1,1.36,1.979l-.513.277a10.754,10.754,0,0,0-1.29-1.877,10.7,10.7,0,0,0-18.792,6.122q-.033.426-.033.848a10.7,10.7,0,0,0,20.838,3.389l.553.185a11.286,11.286,0,0,1-10.676,7.688Z" transform="translate(-1765.699 -706.827)" fill="#fff" opacity="0.7"/></g></g><g transform="translate(85.532 54.832)"><g transform="translate(0 16.014)"><path d="M2744.814,1223.887a.194.194,0,0,1-.167-.293c.131-.22.255-.446.371-.669a.194.194,0,0,1,.345.178c-.119.23-.247.462-.382.689A.194.194,0,0,1,2744.814,1223.887Z" transform="translate(-2720.053 -1219.368)" fill="#91b3fa"/><path d="M2348.382,1225.394h-.015a13.718,13.718,0,0,1-1.573-.216.194.194,0,1,1,.075-.381,13.3,13.3,0,0,0,1.528.21.194.194,0,0,1-.015.388Zm2.54-.041a.194.194,0,0,1-.021-.387,13.246,13.246,0,0,0,1.521-.261.194.194,0,0,1,.088.378,13.662,13.662,0,0,1-1.565.269Zm-6.526-.9a.2.2,0,0,1-.073-.014,13.575,13.575,0,0,1-1.433-.683.194.194,0,0,1,.187-.34,13.232,13.232,0,0,0,1.392.664.194.194,0,0,1-.073.374Zm10.478-.174a.194.194,0,0,1-.08-.372,13.1,13.1,0,0,0,1.369-.711.194.194,0,1,1,.2.333,13.527,13.527,0,0,1-1.41.733A.193.193,0,0,1,2354.874,1224.279Zm-13.987-1.933a.193.193,0,0,1-.124-.045,13.69,13.69,0,0,1-1.157-1.087.194.194,0,1,1,.282-.267,13.277,13.277,0,0,0,1.124,1.056.194.194,0,0,1-.125.343Zm17.424-.293a.194.194,0,0,1-.129-.339l.114-.1a13.364,13.364,0,0,0,.976-.988.194.194,0,0,1,.29.258,13.718,13.718,0,0,1-1,1.018l-.117.106A.194.194,0,0,1,2358.311,1222.052Zm-20.132-2.778a.194.194,0,0,1-.164-.09,13.514,13.514,0,0,1-.777-1.386.194.194,0,0,1,.349-.17,13.177,13.177,0,0,0,.754,1.346.194.194,0,0,1-.059.268A.192.192,0,0,1,2338.179,1219.274Z" transform="translate(-2336.156 -1214.374)" fill="#91b3fa"/><path d="M2319.161,1164.136a.2.2,0,0,1-.188-.145c-.067-.252-.127-.511-.179-.767a.194.194,0,0,1,.381-.077c.051.249.109.5.175.745a.2.2,0,0,1-.138.238A.2.2,0,0,1,2319.161,1164.136Z" transform="translate(-2318.79 -1162.992)" fill="#91b3fa"/></g><g transform="translate(2.865 3.271)"><path d="M2389.106,952.082a.16.16,0,0,0-.1-.159l-1.789-.777a8.5,8.5,0,0,0-.852-2.617l.987-1.68a.16.16,0,0,0-.016-.185l-1.521-1.777a.16.16,0,0,0-.18-.045l-1.813.715a8.5,8.5,0,0,0-2.454-1.247l-.49-1.887a.16.16,0,0,0-.143-.119l-2.332-.182a.16.16,0,0,0-.159.1l-.777,1.789a8.5,8.5,0,0,0-2.617.852l-1.68-.987a.16.16,0,0,0-.185.016l-1.778,1.521a.16.16,0,0,0-.045.18l.715,1.813a8.493,8.493,0,0,0-1.247,2.454l-1.887.491a.161.161,0,0,0-.119.143l-.182,2.332a.16.16,0,0,0,.1.159l1.789.777a8.5,8.5,0,0,0,.852,2.617l-.987,1.68a.16.16,0,0,0,.016.185l1.521,1.778a.161.161,0,0,0,.181.045l1.813-.715a8.494,8.494,0,0,0,2.454,1.247l.49,1.887a.16.16,0,0,0,.143.119l2.332.182a.16.16,0,0,0,.159-.1l.777-1.788a8.493,8.493,0,0,0,2.617-.852l1.68.987a.16.16,0,0,0,.185-.016l1.778-1.521a.16.16,0,0,0,.045-.181l-.715-1.813a8.493,8.493,0,0,0,1.247-2.454l1.887-.491a.16.16,0,0,0,.119-.143Z" transform="translate(-2368.446 -942.12)" fill="#d1c9e8"/><path d="M2508.833,1084.856a2.375,2.375,0,1,1,.4-.035A2.388,2.388,0,0,1,2508.833,1084.856Zm.007-4.154a1.784,1.784,0,1,0,1.029.328h0A1.775,1.775,0,0,0,2508.84,1080.7Z" transform="translate(-2498.508 -1072.157)" fill="#fff" opacity="0.7"/><path d="M2449.752,1030.213c-.156,0-.313-.006-.471-.018a5.935,5.935,0,1,1,4.971-9.776l.05.059a5.977,5.977,0,0,1,.612.885l0,0,.008.014.014.024.007.013.023.042-.512.277a5.4,5.4,0,0,0-.646-.94h0a5.352,5.352,0,1,0,1.007,5.184l.553.185a5.939,5.939,0,0,1-5.618,4.046Z" transform="translate(-2439.462 -1013.947)" fill="#fff" opacity="0.7"/></g></g></g><g transform="translate(34.051 -1942.329)"><path d="M828.269,2259.474a2.191,2.191,0,0,0,2.186,2.184h118.2a2.191,2.191,0,0,0,2.186-2.184l.984-67.928a3.806,3.806,0,0,0-4.008-3.37L832.3,2185.187a5.509,5.509,0,0,0-5.652,5.634Z" transform="translate(-94.315)" fill="url(#a)"/><path d="M855.71,2288.054a2.074,2.074,0,0,0,2.068,2.068H971.091a2.074,2.074,0,0,0,2.068-2.068l.928-61.666a5.09,5.09,0,0,0-5.335-4.966l-110.717-2.97a3.871,3.871,0,0,0-3.972,3.962Z" transform="translate(-119.599 -30.675)" fill="#f7f6fd"/><g transform="translate(812.436 2190.974)"><path d="M2364.208,2669.69h0a.3.3,0,0,1-.3-.308l.073-5a.3.3,0,0,1,.3-.3h0a.3.3,0,0,1,.3.308l-.073,5A.3.3,0,0,1,2364.208,2669.69Z" transform="translate(-2324.307 -2632.581)" fill="#fff"/><path d="M1895.472,2284.382h0a.3.3,0,0,1-.3-.308l.281-19.154a3.6,3.6,0,0,0-1.026-2.694,5.061,5.061,0,0,0-3.349-1.143l-35.388-.949a.3.3,0,0,1-.295-.311.29.29,0,0,1,.311-.295l35.366.949a5.564,5.564,0,0,1,3.773,1.311,4.183,4.183,0,0,1,1.213,3.135l-.281,19.16A.3.3,0,0,1,1895.472,2284.382Z" transform="translate(-1855.391 -2259.528)" fill="#fff"/></g><rect width="139.357" height="5.968" rx="2.984" transform="translate(863.722 2267.297) rotate(180)" fill="url(#b)"/></g><g transform="matrix(1, 0.017, -0.017, 1, 827.133, 246.768)"><rect width="54.053" height="57.64" rx="4" transform="translate(0.448 7.284)" fill="#d1c9e8"/><g transform="translate(1.652 7.284)"><circle cx="0.602" cy="0.602" r="0.602" transform="translate(0 0)" fill="#f2f2f2"/><ellipse cx="0.401" cy="0.602" rx="0.401" ry="0.602" transform="translate(2.007 0)" fill="#f2f2f2"/><ellipse cx="0.803" cy="0.602" rx="0.803" ry="0.602" transform="translate(3.211 0)" fill="#f2f2f2"/></g><g transform="translate(3.66 11.7)"><g transform="translate(0 -1)"><rect width="47.229" height="7.518" rx="3.759" fill="#fff"/><g transform="translate(2.681 1.666)"><g transform="translate(0 0)"><rect width="25.396" height="1.516" rx="0.758" fill="#d1c9e8"/><rect width="17.046" height="1.516" rx="0.758" transform="translate(0 2.526)" fill="#d1c9e8"/></g><g transform="translate(36.921 0.082)"><rect width="4.817" height="4.014" rx="2.007" transform="translate(0)" fill="#d1c9e8"/><circle cx="0.882" cy="0.882" r="0.882" transform="translate(1.445 1.349)" fill="#fff"/></g></g></g><g transform="translate(0 10)"><rect width="47.229" height="7.518" rx="3.759" fill="#fff"/><g transform="translate(2.681 1.666)"><g transform="translate(0 0)"><rect width="25.396" height="1.516" rx="0.758" fill="#d1c9e8"/><rect width="17.046" height="1.516" rx="0.758" transform="translate(0 2.526)" fill="#d1c9e8"/></g><g transform="translate(36.921 0.082)"><rect width="4.817" height="4.014" rx="2.007" transform="translate(0)" fill="#d1c9e8"/><circle cx="0.882" cy="0.882" r="0.882" transform="translate(1.445 1.349)" fill="#fff"/></g></g></g><g transform="translate(0 21)"><rect width="47.229" height="7.518" rx="3.759" fill="#fff"/><g transform="translate(2.681 1.666)"><g transform="translate(0 0)"><rect width="25.396" height="1.516" rx="0.758" fill="#d1c9e8"/><rect width="17.046" height="1.516" rx="0.758" transform="translate(0 2.526)" fill="#d1c9e8"/></g><g transform="translate(36.921 0.082)"><rect width="4.817" height="4.014" rx="2.007" transform="translate(0)" fill="#d1c9e8"/><circle cx="0.882" cy="0.882" r="0.882" transform="translate(1.445 1.349)" fill="#fff"/></g></g></g><g transform="translate(0 32)"><rect width="47.229" height="7.518" rx="3.759" fill="#fff"/><g transform="translate(2.681 1.666)"><g transform="translate(0 0)"><rect width="25.396" height="1.516" rx="0.758" fill="#d1c9e8"/><rect width="17.046" height="1.516" rx="0.758" transform="translate(0 2.526)" fill="#d1c9e8"/></g><g transform="translate(36.921 0.082)"><rect width="4.817" height="4.014" rx="2.007" transform="translate(0)" fill="#d1c9e8"/><circle cx="0.882" cy="0.882" r="0.882" transform="translate(1.445 1.349)" fill="#fff"/></g></g></g><g transform="translate(0 43)"><rect width="47.229" height="7.518" rx="3.759" fill="#fff"/><g transform="translate(2.681 1.666)"><g transform="translate(0 0)"><rect width="25.396" height="1.516" rx="0.758" fill="#d1c9e8"/><rect width="17.046" height="1.516" rx="0.758" transform="translate(0 2.526)" fill="#d1c9e8"/></g><g transform="translate(36.921 0.082)"><rect width="4.817" height="4.014" rx="2.007" transform="translate(0)" fill="#d1c9e8"/><circle cx="0.882" cy="0.882" r="0.882" transform="translate(1.445 1.349)" fill="#fff"/></g></g></g></g></g><g transform="translate(-777.509 -289.428)"><g transform="translate(1549.697 517.811)"><g transform="translate(0 0)"><path d="M1879.337,1382.792a2.3,2.3,0,0,1,1.78-.613c6.991.629,20.034-2.739,28.558-11.461.592-.606,1.671-.263,2.349.244,9.48,7.086,25.2,8.553,30.65,8.853a2.3,2.3,0,0,1,2.161,2.062c4.961,47.916-26.236,65.279-32.707,68.344a2.308,2.308,0,0,1-2.2-.127c-32.248-20.087-30.869-46.21-31.315-65.565A2.306,2.306,0,0,1,1879.337,1382.792Z" transform="translate(-1878.608 -1370.396)" fill="#fb8f99"/><path d="M1967.9,1514.627a.769.769,0,0,1-.413-.12c-12.363-7.9-20.421-17.352-24.634-28.885-3.763-10.3-3.947-20.79-4.109-30.044l-.022-1.234a.755.755,0,0,1,.218-.547.763.763,0,0,1,.549-.229h0c7.656,0,19.148-3.381,27.577-10.933a.764.764,0,0,1,.932-.067c9.261,6.145,22.472,7.934,29.522,8.454a.761.761,0,0,1,.7.7c1.639,18.7-2.25,34.506-11.558,46.99a55.479,55.479,0,0,1-18.417,15.837h0A.762.762,0,0,1,1967.9,1514.627Zm.2-.363.072.14-.072-.14a55.147,55.147,0,0,0,18.309-15.746c9.261-12.421,13.129-28.158,11.5-46.775a.448.448,0,0,0-.414-.41c-7.081-.522-20.352-2.321-29.673-8.505a.449.449,0,0,0-.549.04c-8.49,7.608-20.07,11.013-27.78,11.013h0a.455.455,0,0,0-.331.136.442.442,0,0,0-.128.321l.022,1.234c.162,9.23.346,19.691,4.09,29.942,4.188,11.466,12.205,20.863,24.509,28.728A.452.452,0,0,0,1968.1,1514.264Z" transform="translate(-1935.253 -1438.283)" fill="#fff" opacity="0.61"/></g><g transform="translate(18.341 16.877)"><path d="M2274.88,1676.536h-1.458a1.311,1.311,0,0,1-1.311-1.311v-4.984a3.231,3.231,0,0,0-3.231-3.231h-9.036a3.231,3.231,0,0,0-3.231,3.231v4.984a1.311,1.311,0,0,1-1.311,1.311h-1.458a1.311,1.311,0,0,1-1.311-1.311v-4.984a7.311,7.311,0,0,1,7.311-7.311h9.036a7.311,7.311,0,0,1,7.311,7.311v4.984A1.311,1.311,0,0,1,2274.88,1676.536Z" transform="translate(-2249.302 -1662.929)" fill="#fff"/><path d="M2223.905,1919.172h-24.651a2.735,2.735,0,0,0-2.735,2.735v18.919a2.735,2.735,0,0,0,2.735,2.735h24.651a2.735,2.735,0,0,0,2.735-2.735v-18.919A2.735,2.735,0,0,0,2223.905,1919.172Zm-8.8,18.285a1.013,1.013,0,0,1-.985,1.25h-5.083a1.013,1.013,0,0,1-.985-1.25l1.186-4.937a4.569,4.569,0,1,1,4.682,0Z" transform="translate(-2196.519 -1904.389)" fill="#fff"/></g></g></g><g transform="translate(718.062 -40.891)"><path d="M230.55,294.955c1.667,1.416,3.9,1.172,5.117,2.622,2.3,2.744-.789,3.226-2.848,6.091s-.636,5.782-1.814,7.986c-1.037,1.935-2.918,5.425-3.848,4.758-.422-5.274,1.785-10.952-2.4-17.53Z" transform="translate(15.537 48.918)" fill="#fdc2a4" fill-rule="evenodd"/><path d="M231.663,295.619c2.153-.255,3.981.631,4.334,3.117.248,1.741-1.96,2.468-3.658,4.832-2.085,2.9-.645,5.856-1.837,8.088-1.05,1.96-3.217,5.588-4.158,4.912l.138-5.164a61.389,61.389,0,0,0,3.4-9.3C230.378,299.923,230.956,297.958,231.663,295.619Z" transform="translate(16.274 49.208)" fill="#320200" fill-rule="evenodd"/><path d="M209.824,288.38c-4.82-3.389-7.381-5.927-8.486-8.2a4.285,4.285,0,0,1,.065-3.111c.787-2.729,6.293-2.147,15.619,2.547,14.729,7.559,17.112,16.521,25.253,24.6l-5.32,6.927C231.838,303.093,215.1,292.091,209.824,288.38Z" transform="translate(4.484 39.815)" fill="#e09d16" fill-rule="evenodd"/><path d="M213.391,289.4l-10.95,2.7c-3.23-3.928-.765-5.936,6.365-13.046,8.521-8.5,17.952-14.584,24.489-19.193,2.17-1.7,3-5.959,3.068-6.94,4.009.348,5.793,1.947,11.332,2.738,1.591,3.043,4.028,6,4.222,10.6.152,3.614-2.44,10.395-8.169,11.354C228.161,280.222,229.191,285.511,213.391,289.4Z" transform="translate(4.476 29.316)" fill="#e09d16" fill-rule="evenodd"/><path d="M211.656,288.611l-3.113.729-3.78-1.909c8.565-3.114,14.181-6.5,21.506-11.851l15.688-17.289,2.468-3.679c.479.092.988.177,1.534.255,1.591,3.043,4.028,6,4.221,10.6.152,3.614-2.44,10.395-8.169,11.354C226.426,279.432,227.5,284.9,211.656,288.611Z" transform="translate(6.211 30.106)" fill="#cf8f10" fill-rule="evenodd"/><path d="M211.767,277.22q1.709.739,3.636,1.708c14.729,7.559,17.112,16.521,25.253,24.6l-2.153,2.8c-13.728-16.009-21.176-19.654-33.971-29.426C207.019,276.949,209.388,277.062,211.767,277.22Z" transform="translate(6.103 40.502)" fill="#cf8f10" fill-rule="evenodd"/><path d="M253.284,219.578,265.591,198.2l2.054,2.386-9.076,22.35c-1.362,1.716-6.169,9.546-10.836,13.758-3.227,2.914-3.963,7.23-6.219,8.842-3.428-4.944-6.584-8.038-1.911-13.49C241.854,229.423,248.672,226.011,253.284,219.578Z" transform="translate(21.359 3.802)" fill="#fdc2a4" fill-rule="evenodd"/><path d="M257.878,211.264c-.553-8.22-6.068-11.358-12.442-10.464-7.477,1.05-10.845,5.562-13.6,11.128-2.246,4.548-3.7,6.258-5.409,6.839-1.959.666-4.557-1.767-8.556-1.194-4.711.674-6.088,3.117-8.345,7.408-1.415,2.688-3.623,5.115-8.456,3.741,4.163,5.288,9.559,7.7,13.958,4.88,3.79-2.433,4.192-3.807,11.852.089,8.068,4.1,14.3,1.667,18.933-4.8,1.691-.35,6.1-.224,9.481-3.434A12.455,12.455,0,0,0,257.878,211.264Z" transform="translate(4.491 4.944)" fill="#745944" fill-rule="evenodd"/><path d="M257.878,208.96c-.553-8.22-9.835.8-15.393,4.043-5.7,3.327-5.532,2.526-8.282,8.091-3.221,6.522-11.258-.815-15.653.079-6.242,1.27-4.361,13.7-17.475,5.245,4.163,5.288,9.559,7.7,13.958,4.88,3.79-2.433,4.192-3.807,11.852.089,8.068,4.1,14.3,1.667,18.933-4.8,1.691-.35,6.1-.224,9.481-3.434A12.455,12.455,0,0,0,257.878,208.96Z" transform="translate(4.491 7.249)" fill="#604029" fill-rule="evenodd"/><path d="M223.54,293.812l-9.336,5.673c-4.157-2.93-2.82-5.689,2.17-14.436,5.962-10.452,13.439-18.823,18.521-25,1.641-2.219,1.312-6.541,1.116-7.506,3.956-.727,6.1.342,11.651-.365,2.342,2.512,5.477,4.722,6.883,9.1,1.106,3.444.4,10.669-4.864,13.115C235.347,281.044,237.445,285.364,223.54,293.812Z" transform="translate(9.462 28.971)" fill="#f2b236" fill-rule="evenodd"/><path d="M245.126,252.267c.249-.026,0-.056.262-.089,2.342,2.512,5.477,4.722,6.883,9.1,1.106,3.444.4,10.669-4.864,13.115-14.194,6.584-11.989,11.382-25.732,19.185l-5.065-.122c5.414-4.324,13.062-9.915,20.043-15.329,3.692-2.862,8.725-5.387,11.3-7.483C252.593,266.875,251.427,259.688,245.126,252.267Z" transform="translate(11.736 28.971)" fill="#e09d16" fill-rule="evenodd"/><path d="M233.876,217.331c-.258,6.551-3.415,7.742-7.066,11.471l-.828,14.436,17.5-4.477c-.8-2.05,3.327-13.643,2.264-13.533-1.585.164-3.287.437-4.7-.205-2.182-.994-1.362-2.774-.3-6.456Z" transform="translate(16.105 12.721)" fill="#ffc9b1" fill-rule="evenodd"/><path d="M226.872,272.447l15.311-3.792c-4-4.4-4.807-10.574-4.782-13.323.051-5.393,2.655-7.327,7.207-13.552,2.48-3.389,5.981-11.368,5.307-14.86-.8-2.051-2.829-2.006-3.893-1.894-1.585.164-3.287.437-4.7-.205-2.182-.994-1.362-2.774-.3-6.456l-3.307-.6c-2.6,13.66-10.993,17.97-12.189,35.835A75.068,75.068,0,0,0,226.872,272.447Z" transform="translate(15.831 12.923)" fill="#fdc2a4" fill-rule="evenodd"/><path d="M237.6,244.194c.441-.578.9-1.194,1.392-1.859a33.419,33.419,0,0,0,3.4-6.31c1.581-1.99,2.532-5.44,5.251-7.895,3.531-3.186,7.139-8.442,9.279-11.556l-3.472,3.795-5.736,5.82-5.312,1.94-1.519,4.892-3.458,8.771Z" transform="translate(21.444 12.369)" fill="#f5b290" fill-rule="evenodd"/><g transform="translate(191.443 240.619)"><path d="M232.808,231.679,221.744,245.6,200.18,260.915l2.757,1.95L225.871,250.9l11.068-10.6c2.295-1.032,1.867-1.9,3.807-.216l.523-6.664c-1.466-4.258-1.62-8.8-2.68-8.877C236.486,224.4,234.034,230.135,232.808,231.679Z" transform="translate(-187.369 -224.537)" fill="#fdc2a4" fill-rule="evenodd"/><path d="M204.533,249.093l-5.776-1.26-7.313,2.914.321,1.484,6.365-.879,4.96,2.762,4.12-2.29-.839-3.156Z" transform="translate(-191.443 -213.674)" fill="#ffc9b1" fill-rule="evenodd"/></g><path d="M256.521,202.349l-1.682-5.251,2.058-7.047,1.406.167-.252,5.986,3,4.36-1.761,4.028-3-.5Z" transform="translate(29.562 0)" fill="#ffc9b1" fill-rule="evenodd"/><path d="M235.362,220.772c0,.006-.035.128-.117-.059-1.513,1.941-5.735,5.065-7.164,6.3-3,2.591-6.39,3.88-7.186,6.27-.54,1.619-.456,5.573,2.32,7.634-1.191,12.321.157,16.2,1.387,23.435.443,2.616.585,5.285.975,8.458L244.4,267.28c-9.112-14.255,1.99-19.367,3.534-28.577-5.915-3.925-3.139-12.726-3.144-14.995a4.374,4.374,0,0,1-1.248-.346c-3.352,5.993-10.679,11.578-13.031,15.927C228.806,235.875,234.387,223.624,235.362,220.772Z" transform="translate(13.611 14.298)" fill="#f60" fill-rule="evenodd"/><path d="M221.267,233.19a5.882,5.882,0,0,0,1.651,1.909c-1.191,12.321.157,16.2,1.387,23.435.066.39.125.782.179,1.174,4.462-9.439,8.868-11.525,16.858-21.577-4.8,1.686-7.862.74-12.491-1.069A35.562,35.562,0,0,1,221.267,233.19Z" transform="translate(13.907 20.116)" fill="#e35805" fill-rule="evenodd"/><path d="M229.153,270.191l12.779-3.754c-9.112-14.256,1.99-19.367,3.534-28.577-5.915-3.925-3.139-12.726-3.144-14.994a4.373,4.373,0,0,1-1.248-.346c-3.352,5.993-10.679,11.578-13.031,15.927C225.316,242.78,224.786,261.688,229.153,270.191Z" transform="translate(16.083 15.141)" fill="#e35805" fill-rule="evenodd"/><path d="M226.793,235.863a58.779,58.779,0,0,0-.587,15.948c3.375-4.632,7.254-7.748,12.959-14.926C234.409,238.557,231.356,237.642,226.793,235.863Z" transform="translate(16.083 21.363)" fill="#d64e00" fill-rule="evenodd"/><g transform="translate(243.521 210.418)"><path d="M232.943,226.342a12.273,12.273,0,0,1-2.455-3.037,10.5,10.5,0,0,1-1.292-2.985c-.751.142-1.05-.472-1.23-1.334-.265-1.264-.757-2.528-.963-3.635-.252-1.358.636-2.107,1.368-.985a14.473,14.473,0,0,1,.18-3.408c.768-4.046,3.482-7.093,7.8-7.015,4.78.087,7.088,2.016,7.722,6.6a19.562,19.562,0,0,1,.2,3.764c.689-.639,1.353.107,1.092,1.314-.239,1.1-.767,2.35-1.067,3.606-.2.83-.5,1.424-1.2,1.311a10.765,10.765,0,0,1-1.676,3.428,12.825,12.825,0,0,1-2.119,2.383c-1.55,1.309-2.387,1.886-3.242,1.872C235.178,228.207,234.288,227.574,232.943,226.342Z" transform="translate(-226.959 -203.941)" fill="#ffd6c4" fill-rule="evenodd"/><path d="M233.383,203.942h.086c4.78.086,7.088,2.016,7.722,6.6a19.562,19.562,0,0,1,.2,3.764c.689-.639,1.355.107,1.092,1.314-.239,1.1-.767,2.351-1.067,3.606-.2.83-.5,1.424-1.2,1.311a10.765,10.765,0,0,1-1.676,3.428,12.874,12.874,0,0,1-2.119,2.383c-1.55,1.309-2.387,1.886-3.242,1.874h-.04Z" transform="translate(-224.08 -203.941)" fill="#ffc9b1" fill-rule="evenodd"/></g><path d="M243.43,217.822a18.1,18.1,0,0,0-3.289-9.994c-1.031,10.122-11.074,4.553-11.175,10.458-1.8-4.947-1.287-6.04-.717-11.555l2.909-2.911,6.073-1.223,5.524,1.265,1.35,3.669C244.4,212.943,244.8,212.41,243.43,217.822Z" transform="translate(16.915 5.85)" fill="#745944" fill-rule="evenodd"/><path d="M225.6,289.505c-5.871-.012-9.782-.975-11.967-2.172-7.28-5.219,11.068-8.879,12.837-9.135,16.4-2.255,26.677,6.21,38.275,7.622,2.177.2,3.87-1.277,5.7-.787,3.458.928,1.2,3.1,1.16,6.623s2.795,5.1,3.094,7.582c.262,2.18.721,6.119-.422,6.1-3.371-4.078-4.82-9.994-12.016-12.987C253.441,288.693,232.048,289.52,225.6,289.505Z" transform="translate(9.553 40.927)" fill="#fdc2a4" fill-rule="evenodd"/><path d="M249.354,283.467c1.617-1.444,3.623-1.767,5.339.069,1.2,1.283-.191,3.145-.227,6.056-.044,3.573,2.831,5.167,3.134,7.679.265,2.208.569,6.422-.589,6.408l-2.849-4.308a61.412,61.412,0,0,0-2.547-9.575C250.77,287.729,250.116,285.788,249.354,283.467Z" transform="translate(27.004 43.002)" fill="#320200" fill-rule="evenodd"/><path d="M225.67,289.522c-5.892-.012-9.857-.952-12.065-2.18a4.285,4.285,0,0,1-1.732-2.585c-.919-2.688,4.334-5.038,14.667-6.541,16.4-2.255,26.726,4.958,38.03,6.909l-.386,8.726C255.376,290.186,232.122,289.537,225.67,289.522Z" transform="translate(9.479 40.911)" fill="#f2b236" fill-rule="evenodd"/><path d="M225.582,287.235c-5.892-.012-9.857-.952-12.065-2.18a3.7,3.7,0,0,1-1.557-2.081,20.961,20.961,0,0,0,8-.284c17.388.974,29.266,2.461,44.249,6.326l-.113,2.548C255.288,287.9,232.034,287.249,225.582,287.235Z" transform="translate(9.567 43.198)" fill="#e09d16" fill-rule="evenodd"/></g><ellipse cx="34.5" cy="7" rx="34.5" ry="7" transform="translate(933.645 350.968)" fill="#d1c9e8" opacity="0.3"/></g></g></svg>