<svg xmlns="http://www.w3.org/2000/svg" xmlns:xlink="http://www.w3.org/1999/xlink" width="350" height="600" viewBox="0 0 350 600"><defs><style>.a{clip-path:url(#d);}.b,.g,.n,.p{fill:#fff;}.c,.d{fill:#57419d;}.c{font-size:22px;font-family:AirbnbCerealApp-Medium, Airbnb Cereal App;font-weight:500;}.d{font-size:10px;font-family:AirbnbCerealApp-Light, Airbnb Cereal App;font-weight:300;}.e,.h{fill:#bbb5cc;}.f{fill:none;}.f,.g,.h{stroke:#bbb5cc;}.i{fill:url(#a);}.j{fill:#f2f2f2;}.k{fill:url(#b);}.l{fill:#dde3e9;}.m{fill:#91b3fa;}.n{opacity:0.7;}.o{fill:#fb8f99;}.p{opacity:0.61;}.q{fill:#fdc2a4;}.aa,.ab,.ac,.q,.r,.s,.t,.u,.v,.w,.x,.y,.z{fill-rule:evenodd;}.r{fill:#320200;}.s{fill:#e09d16;}.t{fill:#cf8f10;}.u{fill:#745944;}.v{fill:#604029;}.w{fill:#f2b236;}.x{fill:#ffc9b1;}.y{fill:#f5b290;}.z{fill:#f60;}.aa{fill:#e35805;}.ab{fill:#d64e00;}.ac{fill:#ffd6c4;}</style><linearGradient id="a" x1="-0.898" y1="0.932" x2="-0.675" y2="-0.163" gradientUnits="objectBoundingBox"><stop offset="0" stop-color="#09005d"/><stop offset="1" stop-color="#1a0f91"/></linearGradient><linearGradient id="b" x1="-0.284" y1="-1.658" x2="-1.176" y2="3.408" xlink:href="#a"/><clipPath id="d"><rect width="350" height="600"/></clipPath></defs><g id="c" class="a"><rect class="b" width="350" height="600"/><g transform="translate(-700)"><rect class="b" width="350" height="600" transform="translate(700)"/><text class="c" transform="translate(820 439)"><tspan x="0" y="0">Stay Private</tspan></text><g transform="translate(717)"><text class="d" transform="translate(70 529)"><tspan x="0" y="0">Dribbble - Discover the World’s Top Designers </tspan><tspan x="0" y="13">and Creative Professionals</tspan></text><path class="e" d="M23,15.5A7.5,7.5,0,1,1,15.5,8,7.5,7.5,0,0,1,23,15.5Zm-8.368,3.971L20.2,13.907a.484.484,0,0,0,0-.684l-.684-.684a.484.484,0,0,0-.684,0L14.29,17.076l-2.119-2.119a.484.484,0,0,0-.684,0l-.684.684a.484.484,0,0,0,0,.684l3.145,3.145a.484.484,0,0,0,.684,0Z" transform="translate(29 514)"/></g><g transform="translate(717 -51)"><text class="d" transform="translate(70 529)"><tspan x="0" y="0">Dribbble - Discover the World’s Top Designers </tspan><tspan x="0" y="13">and Creative Professionals</tspan></text><path class="e" d="M23,15.5A7.5,7.5,0,1,1,15.5,8,7.5,7.5,0,0,1,23,15.5Zm-8.368,3.971L20.2,13.907a.484.484,0,0,0,0-.684l-.684-.684a.484.484,0,0,0-.684,0L14.29,17.076l-2.119-2.119a.484.484,0,0,0-.684,0l-.684.684a.484.484,0,0,0,0,.684l3.145,3.145a.484.484,0,0,0,.684,0Z" transform="translate(29 514)"/></g><g transform="translate(754.727 11)"><path class="f" d="M11.273,8a3.273,3.273,0,1,0,3.273,3.273A3.272,3.272,0,0,0,11.273,8Z" transform="translate(101.5 551)"/><path class="g" d="M11.273,8a3.273,3.273,0,1,0,3.273,3.273A3.272,3.272,0,0,0,11.273,8Z" transform="translate(114.5 551)"/><path class="h" d="M11.273,8a3.273,3.273,0,1,0,3.273,3.273A3.272,3.272,0,0,0,11.273,8Z" transform="translate(128.5 551)"/></g><g transform="translate(34.051 -1942.329)"><path class="i" d="M828.269,2259.474a2.191,2.191,0,0,0,2.186,2.184h118.2a2.191,2.191,0,0,0,2.186-2.184l.984-67.928a3.806,3.806,0,0,0-4.008-3.37L832.3,2185.187a5.509,5.509,0,0,0-5.652,5.634Z" transform="translate(-94.315)"/><path class="j" d="M855.71,2288.054a2.074,2.074,0,0,0,2.068,2.068H971.091a2.074,2.074,0,0,0,2.068-2.068l.928-61.666a5.09,5.09,0,0,0-5.335-4.966l-110.717-2.97a3.871,3.871,0,0,0-3.972,3.962Z" transform="translate(-119.599 -30.675)"/><g transform="translate(812.436 2190.974)"><path class="b" d="M2364.208,2669.69h0a.3.3,0,0,1-.3-.308l.073-5a.3.3,0,0,1,.3-.3h0a.3.3,0,0,1,.3.308l-.073,5A.3.3,0,0,1,2364.208,2669.69Z" transform="translate(-2324.307 -2632.581)"/><path class="b" d="M1895.472,2284.382h0a.3.3,0,0,1-.3-.308l.281-19.154a3.6,3.6,0,0,0-1.026-2.694,5.061,5.061,0,0,0-3.349-1.143l-35.388-.949a.3.3,0,0,1-.295-.311.29.29,0,0,1,.311-.295l35.366.949a5.564,5.564,0,0,1,3.773,1.311,4.183,4.183,0,0,1,1.213,3.135l-.281,19.16A.3.3,0,0,1,1895.472,2284.382Z" transform="translate(-1855.391 -2259.528)"/></g><rect class="k" width="139.357" height="5.968" rx="2.984" transform="translate(863.722 2267.297) rotate(180)"/></g><g transform="translate(826.498 245.242)"><rect class="j" width="54.053" height="56.436" rx="4" transform="translate(0.448 8.488)"/><g transform="translate(1.652 7.284)"><circle class="j" cx="0.602" cy="0.602" r="0.602" transform="translate(0 0)"/><ellipse class="j" cx="0.401" cy="0.602" rx="0.401" ry="0.602" transform="translate(2.007 0)"/><ellipse class="j" cx="0.803" cy="0.602" rx="0.803" ry="0.602" transform="translate(3.211 0)"/></g><g transform="translate(3.66 11.7)"><g transform="translate(0 0)"><rect class="b" width="47.229" height="7.518" rx="3.759"/><g transform="translate(2.681 1.666)"><g transform="translate(0 0)"><rect class="l" width="25.396" height="1.516" rx="0.758"/><rect class="l" width="17.046" height="1.516" rx="0.758" transform="translate(0 2.526)"/></g><g transform="translate(36.921 0.082)"><rect class="l" width="4.817" height="4.014" rx="2.007" transform="translate(0)"/><circle class="j" cx="0.882" cy="0.882" r="0.882" transform="translate(1.445 1.349)"/></g></g></g><g transform="translate(0 10.86)"><rect class="b" width="47.229" height="7.518" rx="3.759" transform="translate(0 0)"/><g transform="translate(2.681 1.666)"><g transform="translate(0 0)"><rect class="l" width="25.396" height="1.516" rx="0.758"/><rect class="l" width="17.046" height="1.516" rx="0.758" transform="translate(0 2.526)"/></g><g transform="translate(36.921 0.082)"><rect class="l" width="4.817" height="4.014" rx="2.007" transform="translate(0)"/><circle class="j" cx="0.882" cy="0.882" r="0.882" transform="translate(1.445 1.349)"/></g></g></g><g transform="translate(0 21.719)"><rect class="b" width="47.229" height="7.518" rx="3.759" transform="translate(0 0)"/><g transform="translate(2.681 1.666)"><g transform="translate(0 0)"><rect class="l" width="25.396" height="1.516" rx="0.758"/><rect class="l" width="17.046" height="1.516" rx="0.758" transform="translate(0 2.526)"/></g><g transform="translate(36.921 0.082)"><rect class="l" width="4.817" height="4.014" rx="2.007" transform="translate(0)"/><circle class="j" cx="0.882" cy="0.882" r="0.882" transform="translate(1.445 1.349)"/></g></g></g><g transform="translate(0 32.579)"><rect class="b" width="47.229" height="7.518" rx="3.759" transform="translate(0 0)"/><g transform="translate(2.681 1.666)"><g transform="translate(0 0)"><rect class="l" width="25.396" height="1.516" rx="0.758"/><rect class="l" width="17.046" height="1.516" rx="0.758" transform="translate(0 2.526)"/></g><g transform="translate(36.921 0.082)"><rect class="l" width="4.817" height="4.014" rx="2.007" transform="translate(0)"/><circle class="j" cx="0.882" cy="0.882" r="0.882" transform="translate(1.445 1.349)"/></g></g></g><g transform="translate(0 43.439)"><rect class="b" width="47.229" height="7.518" rx="3.759" transform="translate(0 0)"/><g transform="translate(2.681 1.666)"><g transform="translate(0 0)"><rect class="l" width="25.396" height="1.516" rx="0.758"/><rect class="l" width="17.046" height="1.516" rx="0.758" transform="translate(0 2.526)"/></g><g transform="translate(36.921 0.082)"><rect class="l" width="4.817" height="4.014" rx="2.007" transform="translate(0)"/><circle class="j" cx="0.882" cy="0.882" r="0.882" transform="translate(1.445 1.349)"/></g></g></g></g></g><g transform="translate(-726.508 -319.428)"><g transform="translate(1529.559 455)"><g transform="translate(0 0)"><g transform="translate(0 31.197)"><path class="m" d="M2365.079,1113.287a.192.192,0,0,1-.094-.024.194.194,0,0,1-.075-.264q.188-.337.364-.679a.194.194,0,1,1,.345.178q-.179.347-.369.69A.194.194,0,0,1,2365.079,1113.287Z" transform="translate(-2316.693 -1105.495)"/><path class="m" d="M1569.111,1068.32l-.344,0a.194.194,0,0,1,0-.388h0c.5.007,1.01,0,1.511-.024a.2.2,0,0,1,.2.185.194.194,0,0,1-.185.2C1569.907,1068.311,1569.507,1068.32,1569.111,1068.32Zm-2.811-.151h-.021c-.507-.055-1.019-.125-1.52-.209a.194.194,0,1,1,.064-.383c.494.083,1,.152,1.5.206a.194.194,0,0,1-.021.387Zm6.456-.1a.194.194,0,0,1-.027-.387c.5-.07,1-.156,1.49-.255a.194.194,0,0,1,.077.381c-.5.1-1.008.187-1.512.259Zm-10.382-.628a.193.193,0,0,1-.05-.007c-.492-.131-.987-.279-1.47-.439a.194.194,0,0,1,.122-.369c.476.157.963.3,1.448.433a.194.194,0,0,1-.05.382Zm14.284-.232a.194.194,0,0,1-.056-.38c.481-.146.963-.308,1.433-.481a.194.194,0,1,1,.134.365c-.477.176-.967.34-1.455.488A.2.2,0,0,1,1576.658,1067.2Zm-18.052-1.092a.193.193,0,0,1-.078-.016c-.467-.206-.933-.428-1.385-.66a.194.194,0,0,1,.177-.346c.445.229.9.447,1.364.65a.194.194,0,0,1-.079.372Zm21.774-.358a.194.194,0,0,1-.084-.369c.452-.218.9-.452,1.342-.7a.194.194,0,1,1,.189.339c-.446.248-.9.486-1.363.707A.193.193,0,0,1,1580.38,1065.754Zm-25.292-1.53a.192.192,0,0,1-.1-.031c-.429-.275-.855-.566-1.266-.866a.194.194,0,1,1,.229-.314c.4.3.825.582,1.247.853a.194.194,0,0,1-.105.358Zm28.746-.477a.194.194,0,0,1-.111-.354c.413-.285.824-.586,1.219-.895a.194.194,0,1,1,.239.307c-.4.313-.818.619-1.238.908A.2.2,0,0,1,1583.834,1063.746Zm-31.93-1.931a.194.194,0,0,1-.129-.049c-.38-.337-.757-.69-1.119-1.05a.194.194,0,1,1,.274-.276c.357.355.728.7,1.1,1.034a.194.194,0,0,1-.129.34Zm35.038-.583a.194.194,0,0,1-.133-.336c.365-.345.725-.7,1.069-1.069a.194.194,0,1,1,.283.267c-.349.37-.714.735-1.085,1.084A.2.2,0,0,1,1586.941,1061.232Zm-37.819-2.285a.194.194,0,0,1-.15-.07c-.325-.391-.644-.8-.947-1.207a.194.194,0,1,1,.313-.231c.3.4.613.8.933,1.189a.194.194,0,0,1-.149.318Zm40.507-.669a.194.194,0,0,1-.153-.313c.309-.4.61-.808.893-1.219a.194.194,0,1,1,.32.22c-.288.418-.593.835-.907,1.238A.194.194,0,0,1,1589.629,1058.278Zm-42.822-2.587a.194.194,0,0,1-.167-.094c-.263-.438-.516-.889-.751-1.338a.194.194,0,1,1,.344-.18c.231.443.48.886.74,1.318a.194.194,0,0,1-.166.294Zm-1.786-3.573a.194.194,0,0,1-.18-.121c-.192-.473-.372-.957-.535-1.438a.194.194,0,1,1,.368-.125c.16.474.338.95.527,1.417a.194.194,0,0,1-.18.267Z" transform="translate(-1543.447 -1047.154)"/><path class="m" d="M1529.92,996.891a.194.194,0,0,1-.189-.15q-.089-.381-.167-.764a.194.194,0,1,1,.38-.077q.077.377.165.753a.194.194,0,0,1-.145.233A.2.2,0,0,1,1529.92,996.891Z" transform="translate(-1529.559 -995.744)"/></g><g transform="translate(3.459)"><path class="m" d="M1589.717,655.33a.194.194,0,0,1-.164-.3q.208-.33.427-.656a.194.194,0,0,1,.323.217q-.216.321-.421.646A.194.194,0,0,1,1589.717,655.33Z" transform="translate(-1589.523 -642.793)"/><path class="m" d="M1669.033,474.043a.194.194,0,0,1-.186-.14c-.148-.506-.315-1.014-.494-1.511a.194.194,0,0,1,.365-.132c.182.5.351,1.019.5,1.533a.194.194,0,0,1-.187.249Zm-1.505-3.92a.194.194,0,0,1-.175-.11c-.229-.477-.475-.951-.733-1.41a.194.194,0,1,1,.339-.19c.261.466.511.948.744,1.432a.194.194,0,0,1-.175.278Zm-2.121-3.625a.194.194,0,0,1-.159-.083c-.3-.432-.622-.86-.951-1.273a.194.194,0,0,1,.3-.242c.334.42.659.854.965,1.293a.194.194,0,0,1-.159.306Zm-41.334-1.7a.194.194,0,0,1-.149-.318c.341-.41.7-.817,1.068-1.209a.194.194,0,1,1,.283.266c-.362.386-.716.787-1.052,1.191A.194.194,0,0,1,1624.074,464.8Zm38.657-1.541a.194.194,0,0,1-.139-.059c-.366-.377-.75-.749-1.141-1.106a.194.194,0,0,1,.262-.287c.4.362.786.739,1.158,1.122a.194.194,0,0,1-.139.329Zm-35.724-1.465a.194.194,0,0,1-.128-.34c.4-.353.824-.7,1.247-1.024a.194.194,0,1,1,.237.308c-.417.322-.831.661-1.229,1.009A.193.193,0,0,1,1627.006,461.8Zm32.568-1.3a.194.194,0,0,1-.116-.038c-.423-.315-.862-.62-1.3-.907a.194.194,0,1,1,.212-.326c.448.292.894.6,1.323.921a.194.194,0,0,1-.116.35Zm-29.193-1.2a.194.194,0,0,1-.1-.359c.454-.283.924-.556,1.4-.81a.194.194,0,0,1,.185.342c-.465.251-.928.52-1.375.8A.193.193,0,0,1,1630.381,459.3Zm25.631-1.023a.191.191,0,0,1-.089-.022c-.468-.241-.951-.472-1.434-.684a.194.194,0,1,1,.156-.355c.49.215.98.449,1.455.694a.194.194,0,0,1-.089.367Zm-21.9-.9a.194.194,0,0,1-.075-.374c.493-.205,1-.4,1.509-.573a.194.194,0,1,1,.127.367c-.5.172-1,.362-1.486.564A.2.2,0,0,1,1634.115,457.373Zm18.022-.715a.194.194,0,0,1-.06-.009c-.5-.163-1.015-.312-1.526-.443a.194.194,0,1,1,.1-.376c.519.134,1.04.285,1.549.45a.194.194,0,0,1-.06.379Zm-14.026-.577a.194.194,0,0,1-.044-.383c.522-.123,1.054-.231,1.581-.321a.194.194,0,1,1,.066.383c-.519.089-1.043.2-1.558.317A.2.2,0,0,1,1638.111,456.081Zm9.941-.392-.03,0c-.522-.08-1.052-.145-1.578-.193a.194.194,0,0,1,.035-.387c.533.049,1.072.114,1.6.2a.194.194,0,0,1-.029.386Zm-5.789-.238a.194.194,0,0,1-.014-.388c.533-.038,1.076-.059,1.612-.063h0a.194.194,0,0,1,0,.388c-.528,0-1.063.025-1.588.062Z" transform="translate(-1621.897 -455)"/><path class="m" d="M2414.039,823.565a.194.194,0,0,1-.192-.164q-.059-.38-.13-.76a.194.194,0,1,1,.382-.071q.072.385.132.771a.194.194,0,0,1-.162.222Z" transform="translate(-2366.165 -801.215)"/></g><g transform="translate(5.393 6.206)"><path class="m" d="M1663.263,581.973a.312.312,0,0,0-.187-.31l-3.482-1.513a16.537,16.537,0,0,0-1.658-5.095l1.921-3.271a.312.312,0,0,0-.032-.361l-2.96-3.46a.312.312,0,0,0-.351-.087l-3.529,1.392a16.534,16.534,0,0,0-4.776-2.427l-.955-3.674a.312.312,0,0,0-.278-.232l-4.54-.354a.312.312,0,0,0-.31.187l-1.513,3.482a16.54,16.54,0,0,0-5.095,1.658l-3.271-1.921a.312.312,0,0,0-.361.032l-3.46,2.96a.312.312,0,0,0-.087.351l1.392,3.529a16.536,16.536,0,0,0-2.427,4.776l-3.674.955a.312.312,0,0,0-.232.278l-.354,4.54a.312.312,0,0,0,.187.31l3.482,1.513a16.536,16.536,0,0,0,1.658,5.095l-1.921,3.271a.312.312,0,0,0,.032.361l2.96,3.46a.312.312,0,0,0,.351.087l3.529-1.392a16.535,16.535,0,0,0,4.776,2.427l.955,3.674a.312.312,0,0,0,.278.232l4.54.354a.312.312,0,0,0,.31-.187l1.513-3.482a16.537,16.537,0,0,0,5.095-1.658l3.271,1.922a.311.311,0,0,0,.36-.032l3.46-2.96a.312.312,0,0,0,.088-.351l-1.392-3.529a16.539,16.539,0,0,0,2.427-4.776l3.674-.955a.312.312,0,0,0,.233-.278Z" transform="translate(-1623.043 -562.58)"/><path class="n" d="M1900.839,844.685a4.348,4.348,0,1,1,.74-.063A4.388,4.388,0,0,1,1900.839,844.685Zm.017-8.088a3.8,3.8,0,0,0-.641.055,3.752,3.752,0,1,0,2.8.636h0A3.725,3.725,0,0,0,1900.856,836.6Z" transform="translate(-1880.738 -820.239)"/><path class="n" d="M1785.73,738.217q-.445,0-.894-.035a11.28,11.28,0,0,1-10.4-11.226q0-.445.035-.894a11.279,11.279,0,0,1,19.815-6.455,11.344,11.344,0,0,1,1.36,1.979l-.513.277a10.754,10.754,0,0,0-1.29-1.877,10.7,10.7,0,0,0-18.792,6.122q-.033.426-.033.848a10.7,10.7,0,0,0,20.838,3.389l.553.185a11.286,11.286,0,0,1-10.676,7.688Z" transform="translate(-1765.699 -706.827)"/></g></g><g transform="translate(45.532 24.832)"><g transform="translate(0 16.014)"><path class="m" d="M2744.814,1223.887a.194.194,0,0,1-.167-.293c.131-.22.255-.446.371-.669a.194.194,0,0,1,.345.178c-.119.23-.247.462-.382.689A.194.194,0,0,1,2744.814,1223.887Z" transform="translate(-2720.053 -1219.368)"/><path class="m" d="M2348.382,1225.394h-.015a13.718,13.718,0,0,1-1.573-.216.194.194,0,1,1,.075-.381,13.3,13.3,0,0,0,1.528.21.194.194,0,0,1-.015.388Zm2.54-.041a.194.194,0,0,1-.021-.387,13.246,13.246,0,0,0,1.521-.261.194.194,0,0,1,.088.378,13.662,13.662,0,0,1-1.565.269Zm-6.526-.9a.2.2,0,0,1-.073-.014,13.575,13.575,0,0,1-1.433-.683.194.194,0,0,1,.187-.34,13.232,13.232,0,0,0,1.392.664.194.194,0,0,1-.073.374Zm10.478-.174a.194.194,0,0,1-.08-.372,13.1,13.1,0,0,0,1.369-.711.194.194,0,1,1,.2.333,13.527,13.527,0,0,1-1.41.733A.193.193,0,0,1,2354.874,1224.279Zm-13.987-1.933a.193.193,0,0,1-.124-.045,13.69,13.69,0,0,1-1.157-1.087.194.194,0,1,1,.282-.267,13.277,13.277,0,0,0,1.124,1.056.194.194,0,0,1-.125.343Zm17.424-.293a.194.194,0,0,1-.129-.339l.114-.1a13.364,13.364,0,0,0,.976-.988.194.194,0,0,1,.29.258,13.718,13.718,0,0,1-1,1.018l-.117.106A.194.194,0,0,1,2358.311,1222.052Zm-20.132-2.778a.194.194,0,0,1-.164-.09,13.514,13.514,0,0,1-.777-1.386.194.194,0,0,1,.349-.17,13.177,13.177,0,0,0,.754,1.346.194.194,0,0,1-.059.268A.192.192,0,0,1,2338.179,1219.274Z" transform="translate(-2336.156 -1214.374)"/><path class="m" d="M2319.161,1164.136a.2.2,0,0,1-.188-.145c-.067-.252-.127-.511-.179-.767a.194.194,0,0,1,.381-.077c.051.249.109.5.175.745a.2.2,0,0,1-.138.238A.2.2,0,0,1,2319.161,1164.136Z" transform="translate(-2318.79 -1162.992)"/></g><g transform="translate(1.777)"><path class="m" d="M2349.782,983.247a.194.194,0,0,1-.164-.3c.139-.222.287-.442.439-.654a.194.194,0,1,1,.316.226c-.147.206-.291.42-.427.636A.193.193,0,0,1,2349.782,983.247Z" transform="translate(-2349.588 -976.63)"/><path class="m" d="M2407.2,893.927a.2.2,0,0,1-.179-.118,13.009,13.009,0,0,0-.673-1.36.194.194,0,0,1,.338-.192,13.517,13.517,0,0,1,.694,1.4.194.194,0,0,1-.179.27Zm-2.119-3.427a.194.194,0,0,1-.148-.068q-.149-.175-.3-.346c-.237-.26-.487-.513-.744-.753a.194.194,0,0,1,.266-.284c.264.247.521.507.765.775q.16.176.314.356a.194.194,0,0,1-.148.32Zm-19.4-1a.194.194,0,0,1-.134-.335q.118-.112.239-.223c.3-.277.623-.543.949-.791a.194.194,0,0,1,.235.309c-.317.241-.628.5-.922.769q-.118.108-.232.217A.194.194,0,0,1,2385.681,889.5Zm16.362-1.647a.193.193,0,0,1-.1-.03,13.168,13.168,0,0,0-1.327-.735.194.194,0,1,1,.168-.35,13.566,13.566,0,0,1,1.366.756.194.194,0,0,1-.1.358Zm-13.067-.671a.194.194,0,0,1-.087-.368,13.588,13.588,0,0,1,1.438-.613.194.194,0,0,1,.132.365,13.131,13.131,0,0,0-1.4.6A.2.2,0,0,1,2388.977,887.187Zm9.376-.94a.2.2,0,0,1-.05-.006,13.24,13.24,0,0,0-1.486-.3.194.194,0,0,1-.164-.22.192.192,0,0,1,.22-.164,13.631,13.631,0,0,1,1.531.313.194.194,0,0,1-.05.382Zm-5.538-.284a.194.194,0,0,1-.03-.386,13.684,13.684,0,0,1,1.554-.155.194.194,0,0,1,.016.388,13.289,13.289,0,0,0-1.51.151Z" transform="translate(-2383.416 -885.421)"/><path class="m" d="M2772.008,1068.685a.194.194,0,0,1-.192-.164c-.039-.251-.086-.5-.14-.752a.194.194,0,0,1,.38-.082c.055.255.1.516.144.774a.194.194,0,0,1-.162.222Z" transform="translate(-2747.321 -1057.027)"/></g><g transform="translate(2.865 3.271)"><path class="m" d="M2389.106,952.082a.16.16,0,0,0-.1-.159l-1.789-.777a8.5,8.5,0,0,0-.852-2.617l.987-1.68a.16.16,0,0,0-.016-.185l-1.521-1.777a.16.16,0,0,0-.18-.045l-1.813.715a8.5,8.5,0,0,0-2.454-1.247l-.49-1.887a.16.16,0,0,0-.143-.119l-2.332-.182a.16.16,0,0,0-.159.1l-.777,1.789a8.5,8.5,0,0,0-2.617.852l-1.68-.987a.16.16,0,0,0-.185.016l-1.778,1.521a.16.16,0,0,0-.045.18l.715,1.813a8.493,8.493,0,0,0-1.247,2.454l-1.887.491a.161.161,0,0,0-.119.143l-.182,2.332a.16.16,0,0,0,.1.159l1.789.777a8.5,8.5,0,0,0,.852,2.617l-.987,1.68a.16.16,0,0,0,.016.185l1.521,1.778a.161.161,0,0,0,.181.045l1.813-.715a8.494,8.494,0,0,0,2.454,1.247l.49,1.887a.16.16,0,0,0,.143.119l2.332.182a.16.16,0,0,0,.159-.1l.777-1.788a8.493,8.493,0,0,0,2.617-.852l1.68.987a.16.16,0,0,0,.185-.016l1.778-1.521a.16.16,0,0,0,.045-.181l-.715-1.813a8.493,8.493,0,0,0,1.247-2.454l1.887-.491a.16.16,0,0,0,.119-.143Z" transform="translate(-2368.446 -942.12)"/><path class="n" d="M2508.833,1084.856a2.375,2.375,0,1,1,.4-.035A2.388,2.388,0,0,1,2508.833,1084.856Zm.007-4.154a1.784,1.784,0,1,0,1.029.328h0A1.775,1.775,0,0,0,2508.84,1080.7Z" transform="translate(-2498.508 -1072.157)"/><path class="n" d="M2449.752,1030.213c-.156,0-.313-.006-.471-.018a5.935,5.935,0,1,1,4.971-9.776l.05.059a5.977,5.977,0,0,1,.612.885l0,0,.008.014.014.024.007.013.023.042-.512.277a5.4,5.4,0,0,0-.646-.94h0a5.352,5.352,0,1,0,1.007,5.184l.553.185a5.939,5.939,0,0,1-5.618,4.046Z" transform="translate(-2439.462 -1013.947)"/></g></g></g><g transform="translate(1549.697 507.811)"><g transform="translate(0 0)"><path class="o" d="M1879.337,1382.792a2.3,2.3,0,0,1,1.78-.613c6.991.629,20.034-2.739,28.558-11.461.592-.606,1.671-.263,2.349.244,9.48,7.086,25.2,8.553,30.65,8.853a2.3,2.3,0,0,1,2.161,2.062c4.961,47.916-26.236,65.279-32.707,68.344a2.308,2.308,0,0,1-2.2-.127c-32.248-20.087-30.869-46.21-31.315-65.565A2.306,2.306,0,0,1,1879.337,1382.792Z" transform="translate(-1878.608 -1370.396)"/><path class="p" d="M1967.9,1514.627a.769.769,0,0,1-.413-.12c-12.363-7.9-20.421-17.352-24.634-28.885-3.763-10.3-3.947-20.79-4.109-30.044l-.022-1.234a.755.755,0,0,1,.218-.547.763.763,0,0,1,.549-.229h0c7.656,0,19.148-3.381,27.577-10.933a.764.764,0,0,1,.932-.067c9.261,6.145,22.472,7.934,29.522,8.454a.761.761,0,0,1,.7.7c1.639,18.7-2.25,34.506-11.558,46.99a55.479,55.479,0,0,1-18.417,15.837h0A.762.762,0,0,1,1967.9,1514.627Zm.2-.363.072.14-.072-.14a55.147,55.147,0,0,0,18.309-15.746c9.261-12.421,13.129-28.158,11.5-46.775a.448.448,0,0,0-.414-.41c-7.081-.522-20.352-2.321-29.673-8.505a.449.449,0,0,0-.549.04c-8.49,7.608-20.07,11.013-27.78,11.013h0a.455.455,0,0,0-.331.136.442.442,0,0,0-.128.321l.022,1.234c.162,9.23.346,19.691,4.09,29.942,4.188,11.466,12.205,20.863,24.509,28.728A.452.452,0,0,0,1968.1,1514.264Z" transform="translate(-1935.253 -1438.283)"/></g><g transform="translate(18.341 16.877)"><path class="p" d="M2274.88,1676.536h-1.458a1.311,1.311,0,0,1-1.311-1.311v-4.984a3.231,3.231,0,0,0-3.231-3.231h-9.036a3.231,3.231,0,0,0-3.231,3.231v4.984a1.311,1.311,0,0,1-1.311,1.311h-1.458a1.311,1.311,0,0,1-1.311-1.311v-4.984a7.311,7.311,0,0,1,7.311-7.311h9.036a7.311,7.311,0,0,1,7.311,7.311v4.984A1.311,1.311,0,0,1,2274.88,1676.536Z" transform="translate(-2249.302 -1662.929)"/><path class="p" d="M2223.905,1919.172h-24.651a2.735,2.735,0,0,0-2.735,2.735v18.919a2.735,2.735,0,0,0,2.735,2.735h24.651a2.735,2.735,0,0,0,2.735-2.735v-18.919A2.735,2.735,0,0,0,2223.905,1919.172Zm-8.8,18.285a1.013,1.013,0,0,1-.985,1.25h-5.083a1.013,1.013,0,0,1-.985-1.25l1.186-4.937a4.569,4.569,0,1,1,4.682,0Z" transform="translate(-2196.519 -1904.389)"/></g></g></g><g transform="translate(727.864 -8.051)"><path class="q" d="M229.405,294.955c1.338,1.136,3.132.94,4.106,2.1,1.846,2.2-.633,2.588-2.285,4.887s-.511,4.639-1.455,6.407c-.832,1.553-2.341,4.353-3.087,3.818-.339-4.232,1.432-8.787-1.922-14.064Z" transform="translate(5.879 18.509)"/><path class="r" d="M230.611,295.611c1.727-.2,3.194.506,3.478,2.5.2,1.4-1.573,1.98-2.935,3.876-1.673,2.328-.518,4.7-1.474,6.489-.842,1.573-2.581,4.483-3.336,3.941l.111-4.143a49.254,49.254,0,0,0,2.731-7.465C229.581,299.064,230.044,297.487,230.611,295.611Z" transform="translate(6.158 18.619)"/><path class="s" d="M208.092,285.821c-3.867-2.719-5.922-4.755-6.808-6.579a3.438,3.438,0,0,1,.052-2.5c.632-2.189,5.049-1.722,12.531,2.043,11.817,6.065,13.729,13.255,20.261,19.739l-4.268,5.557C225.754,297.625,212.324,288.8,208.092,285.821Z" transform="translate(1.697 15.065)"/><path class="s" d="M210.95,282.189l-8.786,2.163c-2.592-3.152-.614-4.762,5.107-10.467,6.836-6.816,14.4-11.7,19.648-15.4,1.741-1.366,2.408-4.781,2.461-5.568,3.216.279,4.648,1.562,9.092,2.2,1.276,2.441,3.232,4.818,3.387,8.507.122,2.9-1.958,8.34-6.554,9.109C222.8,274.824,223.626,279.068,210.95,282.189Z" transform="translate(1.694 11.092)"/><path class="t" d="M210.293,281.89l-2.5.585-3.033-1.532a63.462,63.462,0,0,0,17.255-9.508L234.6,257.564l1.98-2.952c.385.074.793.142,1.231.2,1.276,2.441,3.232,4.818,3.387,8.507.122,2.9-1.958,8.34-6.554,9.109C222.144,274.526,223,278.913,210.293,281.89Z" transform="translate(2.35 11.391)"/><path class="t" d="M210.337,277.159q1.371.593,2.918,1.371c11.817,6.065,13.729,13.255,20.261,19.739l-1.727,2.248c-11.014-12.844-16.99-15.769-27.256-23.609C206.527,276.941,208.428,277.032,210.337,277.159Z" transform="translate(2.309 15.325)"/><path class="q" d="M250.114,215.353l9.874-17.149,1.648,1.914-7.282,17.931c-1.093,1.376-4.949,7.659-8.694,11.039-2.589,2.338-3.18,5.8-4.989,7.094-2.75-3.967-5.282-6.449-1.533-10.823C240.943,223.252,246.414,220.514,250.114,215.353Z" transform="translate(8.082 1.439)"/><path class="u" d="M246.649,209.167c-.444-6.6-4.868-9.113-9.982-8.4-6,.842-8.7,4.462-10.908,8.928-1.8,3.649-2.969,5.021-4.34,5.487-1.572.534-3.656-1.418-6.864-.958-3.78.541-4.885,2.5-6.7,5.943-1.135,2.156-2.907,4.1-6.785,3,3.34,4.242,7.669,6.18,11.2,3.915,3.041-1.952,3.363-3.054,9.509.072,6.473,3.292,11.47,1.338,15.19-3.852,1.356-.281,4.894-.18,7.607-2.755A9.993,9.993,0,0,0,246.649,209.167Z" transform="translate(1.699 1.871)"/><path class="v" d="M246.649,208.295c-.444-6.6-7.89.644-12.35,3.243-4.576,2.669-4.439,2.027-6.645,6.492-2.585,5.233-9.033-.654-12.558.064-5.008,1.019-3.5,10.994-14.021,4.208,3.34,4.242,7.669,6.18,11.2,3.915,3.041-1.952,3.363-3.054,9.509.072,6.473,3.292,11.47,1.338,15.19-3.852,1.356-.281,4.894-.18,7.607-2.755A9.993,9.993,0,0,0,246.649,208.295Z" transform="translate(1.699 2.743)"/><path class="w" d="M221.207,285.582l-7.49,4.552c-3.335-2.351-2.262-4.565,1.741-11.582,4.783-8.386,10.782-15.1,14.86-20.058,1.316-1.78,1.053-5.248.9-6.022,3.174-.584,4.9.274,9.348-.293,1.879,2.015,4.394,3.788,5.522,7.3.887,2.763.325,8.56-3.9,10.522C230.679,275.337,232.363,278.8,221.207,285.582Z" transform="translate(3.58 10.962)"/><path class="s" d="M239.489,252.25c.2-.021,0-.045.211-.072,1.879,2.015,4.394,3.788,5.522,7.3.887,2.763.325,8.56-3.9,10.522-11.388,5.282-9.619,9.132-20.645,15.393l-4.063-.1c4.343-3.469,10.48-7.955,16.081-12.3,2.962-2.3,7-4.322,9.067-6C245.48,263.969,244.544,258.2,239.489,252.25Z" transform="translate(4.44 10.962)"/><path class="x" d="M232.315,217.331c-.207,5.256-2.74,6.212-5.669,9.2l-.665,11.582,14.043-3.592c-.645-1.645,2.669-10.946,1.816-10.857a7.385,7.385,0,0,1-3.768-.165c-1.751-.8-1.093-2.226-.241-5.18Z" transform="translate(6.094 4.813)"/><path class="q" d="M226.58,261.637l12.284-3.042c-3.207-3.527-3.856-8.483-3.836-10.689.041-4.327,2.131-5.879,5.782-10.873,1.989-2.719,4.8-9.121,4.258-11.922a2.716,2.716,0,0,0-3.123-1.52,7.385,7.385,0,0,1-3.768-.165c-1.751-.8-1.093-2.226-.241-5.18l-2.653-.482c-2.085,10.96-8.82,14.417-9.78,28.751A60.227,60.227,0,0,0,226.58,261.637Z" transform="translate(5.99 4.89)"/><path class="y" d="M237.57,238.734c.354-.464.726-.958,1.116-1.492a26.813,26.813,0,0,0,2.728-5.062c1.268-1.6,2.032-4.365,4.213-6.334,2.833-2.556,5.728-6.773,7.444-9.272l-2.786,3.045-4.6,4.669-4.262,1.556L240.2,229.77l-2.774,7.037Z" transform="translate(8.114 4.68)"/><g transform="translate(191.443 230.622)"><path class="q" d="M226.358,230.267l-8.877,11.17-17.3,12.286,2.212,1.565,18.4-9.6,8.88-8.507c1.841-.828,1.5-1.526,3.054-.173l.42-5.347c-1.176-3.416-1.3-7.063-2.151-7.122C229.309,224.424,227.342,229.029,226.358,230.267Z" transform="translate(-189.902 -224.537)"/><path class="x" d="M201.945,248.844l-4.634-1.011-5.867,2.338.258,1.19,5.106-.705,3.979,2.216,3.306-1.837-.673-2.532Z" transform="translate(-191.443 -220.427)"/></g><path class="x" d="M256.189,199.918l-1.35-4.213,1.651-5.654,1.128.134-.2,4.8,2.41,3.5-1.413,3.232-2.41-.4Z" transform="translate(11.185)"/><path class="z" d="M232.45,220.76s-.028.1-.094-.047c-1.214,1.558-4.6,4.063-5.748,5.055-2.4,2.079-5.127,3.113-5.766,5.03-.433,1.3-.366,4.472,1.861,6.125-.955,9.886.126,12.994,1.113,18.8.355,2.1.469,4.24.782,6.786l15.105-4.436c-7.31-11.437,1.6-15.538,2.835-22.928-4.746-3.149-2.519-10.21-2.522-12.03a3.51,3.51,0,0,1-1-.278c-2.689,4.808-8.568,9.289-10.455,12.778C227.191,232.877,231.668,223.048,232.45,220.76Z" transform="translate(5.15 5.41)"/><path class="aa" d="M221.267,233.19a4.719,4.719,0,0,0,1.325,1.532c-.955,9.886.126,12.994,1.113,18.8.053.313.1.627.144.942,3.58-7.573,7.115-9.247,13.525-17.311-3.85,1.353-6.308.594-10.022-.858A28.53,28.53,0,0,1,221.267,233.19Z" transform="translate(5.262 7.611)"/><path class="aa" d="M228.516,260.767l10.253-3.012c-7.31-11.437,1.6-15.538,2.835-22.928-4.746-3.149-2.519-10.21-2.522-12.03a3.51,3.51,0,0,1-1-.278c-2.689,4.808-8.568,9.289-10.455,12.778C225.438,238.775,225.013,253.945,228.516,260.767Z" transform="translate(6.085 5.729)"/><path class="ab" d="M226.623,235.863a47.158,47.158,0,0,0-.471,12.795c2.708-3.716,5.82-6.216,10.4-11.975C232.734,238.024,230.285,237.29,226.623,235.863Z" transform="translate(6.085 8.083)"/><g transform="translate(233.225 206.392)"><path class="ac" d="M231.76,221.913a9.846,9.846,0,0,1-1.969-2.436,8.422,8.422,0,0,1-1.036-2.4c-.6.114-.842-.379-.987-1.071-.213-1.014-.607-2.028-.773-2.916-.2-1.089.511-1.691,1.1-.791a11.612,11.612,0,0,1,.145-2.734c.616-3.246,2.794-5.69,6.256-5.628,3.835.069,5.687,1.618,6.2,5.294a15.7,15.7,0,0,1,.156,3.02c.553-.513,1.086.086.876,1.054-.192.884-.615,1.886-.856,2.893-.16.666-.4,1.142-.964,1.052a8.637,8.637,0,0,1-1.345,2.751,10.29,10.29,0,0,1-1.7,1.912c-1.243,1.051-1.915,1.513-2.6,1.5C233.553,223.41,232.839,222.9,231.76,221.913Z" transform="translate(-226.959 -203.941)"/><path class="x" d="M233.334,203.942h.069c3.835.069,5.687,1.618,6.2,5.294a15.7,15.7,0,0,1,.156,3.02c.553-.513,1.087.086.876,1.054-.192.884-.615,1.886-.856,2.893-.16.666-.4,1.142-.964,1.052a8.637,8.637,0,0,1-1.345,2.75,10.329,10.329,0,0,1-1.7,1.912c-1.243,1.051-1.915,1.513-2.6,1.5h-.032Z" transform="translate(-225.87 -203.941)"/></g><path class="u" d="M240.324,214.812a14.524,14.524,0,0,0-2.639-8.019c-.827,8.121-8.884,3.653-8.966,8.39-1.444-3.969-1.033-4.846-.575-9.27l2.334-2.335,4.873-.981,4.432,1.015,1.083,2.943C241.1,210.9,241.421,210.47,240.324,214.812Z" transform="translate(6.4 2.214)"/><path class="q" d="M222.894,287.2c-4.71-.009-7.848-.782-9.6-1.742-5.841-4.187,8.88-7.123,10.3-7.329,13.16-1.809,21.4,4.982,30.709,6.115,1.747.164,3.1-1.025,4.569-.632,2.774.745.966,2.483.931,5.314s2.242,4.093,2.482,6.083c.211,1.749.579,4.909-.339,4.9-2.7-3.272-3.867-8.019-9.641-10.42C245.235,286.543,228.071,287.207,222.894,287.2Z" transform="translate(3.615 15.486)"/><path class="r" d="M249.354,283.23c1.3-1.159,2.907-1.418,4.283.055.964,1.029-.153,2.523-.182,4.859-.035,2.867,2.272,4.146,2.514,6.161.213,1.772.456,5.153-.473,5.141l-2.286-3.456a49.272,49.272,0,0,0-2.043-7.682C250.49,286.65,249.966,285.092,249.354,283.23Z" transform="translate(10.218 16.271)"/><path class="w" d="M222.923,287.2c-4.727-.009-7.908-.763-9.68-1.749a3.438,3.438,0,0,1-1.389-2.074c-.738-2.156,3.478-4.042,11.768-5.248,13.16-1.809,21.443,3.978,30.512,5.543l-.309,7C246.756,287.734,228.1,287.213,222.923,287.2Z" transform="translate(3.587 15.479)"/><path class="s" d="M222.889,286.336c-4.727-.009-7.908-.763-9.68-1.749a2.969,2.969,0,0,1-1.249-1.669,16.818,16.818,0,0,0,6.42-.228c13.95.781,23.481,1.974,35.5,5.075l-.091,2.045C246.723,286.869,228.065,286.348,222.889,286.336Z" transform="translate(3.62 16.345)"/></g></g></g></svg>