<svg xmlns="http://www.w3.org/2000/svg" xmlns:xlink="http://www.w3.org/1999/xlink" width="350" height="600" viewBox="0 0 350 600">
  <defs>
    <clipPath id="clip-path">
      <rect width="110" height="122" fill="none"/>
    </clipPath>
    <clipPath id="clip-a">
      <rect width="350" height="600"/>
    </clipPath>
  </defs>
  <g id="a" clip-path="url(#clip-a)">
    <rect width="350" height="600" fill="#fff"/>
    <g id="a_bg" data-name="a bg" transform="translate(-0.125)">
      <path id="band" d="M-470.1-1855.725c-10.542-11.208-48.032-64,17.105-118.272s179.043-75.142,179.043-75.142,26.513-4.522,63.455-4.81v146.017c-71.318.576-123.713,31.7-179.5,63.387-12.418,6.748-23.818,9.318-33.951,9.318C-446.532-1835.226-462.827-1847.989-470.1-1855.725Z" transform="translate(561.125 2158)" fill="#f7f6fd" opacity="0.597"/>
      <path id="cloud" d="M173.635,189.34h51.914a11.028,11.028,0,1,0,0-22.049,11.444,11.444,0,0,0-6.19,1.8,10.935,10.935,0,0,0-18.166-10.662,8.947,8.947,0,1,0-16.939,5.445q-.269-.018-.543-.018a8,8,0,0,0-7.652,10.325,7.772,7.772,0,1,0-2.423,15.157Z" transform="translate(-81.601 -89.944)" fill="#fafafe" fill-rule="evenodd"/>
      <g id="stars">
        <path id="Path_6" data-name="Path 6" d="M370.686,84.686" transform="translate(-157.536 -71.684)" fill="#e9e5f4" fill-rule="evenodd" opacity="0.495"/>
        <path id="Path_7" data-name="Path 7" d="M319.809,81l1.67,10.139,10.139,1.67L321.48,94.48l-1.67,10.139-1.67-10.139L308,92.809l10.139-1.67Z" transform="translate(-145.904 -71)" fill="#e9e5f4" fill-rule="evenodd" opacity="0.495"/>
        <path id="Path_8" data-name="Path 8" d="M141.809,304l1.67,10.139,10.139,1.67-10.139,1.67-1.67,10.139-1.67-10.139L130,315.809l10.139-1.67Z" transform="translate(-112.875 -100.678)" fill="#e9e5f4" fill-rule="evenodd" opacity="0.495"/>
        <path id="Path_10" data-name="Path 10" d="M469.809,421l1.67,10.139,10.139,1.67-10.139,1.67-1.67,10.139-1.67-10.139L458,432.809l10.139-1.67Z" transform="translate(-188.256 -116.25)" fill="#e9e5f4" fill-rule="evenodd" opacity="0.495"/>
        <path id="Path_16" data-name="Path 16" d="M432.207,117.225l1.095,6.645,6.645,1.095-6.645,1.095-1.095,6.645-1.094-6.645-6.645-1.095,6.645-1.095Z" transform="translate(-180.447 -77.722)" fill="#e9e5f4" fill-rule="evenodd" opacity="0.495"/>
        <path id="Path_19" data-name="Path 19" d="M275.207,525.225l1.095,6.645,6.645,1.094-6.645,1.095-1.095,6.645-1.095-6.645-6.645-1.095,6.645-1.094Z" transform="translate(-138.383 -179.596)" fill="#e9e5f4" fill-rule="evenodd" opacity="0.495"/>
      </g>
    </g>
    <g id="text" transform="translate(5 -27)">
      <text id="Access_Easily_and_Quickly" data-name="Access Easily and Quickly" transform="translate(40 439)" fill="#57419d" font-size="22" font-family="AirbnbCerealApp-Medium, Airbnb Cereal App" font-weight="500"><tspan x="0" y="0">Access Easily and Quickly</tspan></text>
      <g id="Group_7" data-name="Group 7">
        <text id="Easily_find_your_link_with_a_quick_search_or_by_filtering_with_Tags." data-name="Easily find your link with a quick search or by 
filtering with Tags." transform="translate(70 529)" fill="#57419d" font-size="11" font-family="AirbnbCerealApp-Book, Airbnb Cereal App"><tspan x="0" y="0">Easily find your link with a quick search or by </tspan><tspan x="0" y="14">filtering with Tags.</tspan></text>
        <path id="FontAwsome_check-circle_" data-name="FontAwsome (check-circle)" d="M23,15.5A7.5,7.5,0,1,1,15.5,8,7.5,7.5,0,0,1,23,15.5Zm-8.368,3.971L20.2,13.907a.484.484,0,0,0,0-.684l-.684-.684a.484.484,0,0,0-.684,0L14.29,17.076l-2.119-2.119a.484.484,0,0,0-.684,0l-.684.684a.484.484,0,0,0,0,.684l3.145,3.145a.484.484,0,0,0,.684,0Z" transform="translate(29 514)" fill="#57419d"/>
      </g>
      <g id="Group_8" data-name="Group 8" transform="translate(0 -51)">
        <text id="Access_your_Links_quickly_by_clicking_the_Kuhu_extension_icon." data-name="Access your Links quickly by clicking the Kuhu 
extension icon." transform="translate(70 529)" fill="#57419d" font-size="11" font-family="AirbnbCerealApp-Book, Airbnb Cereal App"><tspan x="0" y="0">Access your Links quickly by clicking the Kuhu </tspan><tspan x="0" y="14">extension icon.</tspan></text>
        <path id="FontAwsome_check-circle_2" data-name="FontAwsome (check-circle)" d="M23,15.5A7.5,7.5,0,1,1,15.5,8,7.5,7.5,0,0,1,23,15.5Zm-8.368,3.971L20.2,13.907a.484.484,0,0,0,0-.684l-.684-.684a.484.484,0,0,0-.684,0L14.29,17.076l-2.119-2.119a.484.484,0,0,0-.684,0l-.684.684a.484.484,0,0,0,0,.684l3.145,3.145a.484.484,0,0,0,.684,0Z" transform="translate(29 514)" fill="#57419d"/>
      </g>
      <g id="Group_13" data-name="Group 13" transform="translate(45.227 11)">
        <path id="FontAwsome_circle_" data-name="FontAwsome (circle)" d="M11.273,8a3.273,3.273,0,1,0,3.273,3.273A3.272,3.272,0,0,0,11.273,8Z" transform="translate(101.5 551)" fill="#bbb5cc" stroke="#bbb5cc" stroke-width="1"/>
        <path id="FontAwsome_circle_2" data-name="FontAwsome (circle)" d="M11.273,8a3.273,3.273,0,1,0,3.273,3.273A3.272,3.272,0,0,0,11.273,8Z" transform="translate(114.5 551)" fill="#fff" stroke="#bbb5cc" stroke-width="1"/>
        <path id="FontAwsome_circle_3" data-name="FontAwsome (circle)" d="M11.273,8a3.273,3.273,0,1,0,3.273,3.273A3.272,3.272,0,0,0,11.273,8Z" transform="translate(128.5 551)" fill="#fff" stroke="#bbb5cc" stroke-width="1"/>
      </g>
    </g>
    <g id="graphic_a" data-name="graphic a" transform="translate(-3 -22)">
      <g id="Web" transform="translate(185.552 168.716)">
        <path id="Container" d="M8,0H119a8.075,8.075,0,0,1,8,8.149V129.362a8.075,8.075,0,0,1-8,8.149H8a8.075,8.075,0,0,1-8-8.149V8.149A8.075,8.075,0,0,1,8,0Z" transform="translate(0.448 9.284)" fill="#e9e5f4"/>
        <g id="Buttons" transform="translate(3.623 7.448)">
          <circle id="buttons-2" data-name="buttons" cx="1.5" cy="1.5" r="1.5" transform="translate(-0.175 -0.163)" fill="#f2f2f2"/>
          <ellipse id="buttons-3" data-name="buttons" cx="1" cy="1.5" rx="1" ry="1.5" transform="translate(4.825 -0.163)" fill="#f2f2f2"/>
          <ellipse id="buttons-4" data-name="buttons" cx="2" cy="1.5" rx="2" ry="1.5" transform="translate(7.825 -0.163)" fill="#f2f2f2"/>
        </g>
        <g id="Rows" transform="translate(7.999 18.516)">
          <g id="Row" transform="translate(1.449 -1.232)" clip-path="url(#clip-path)">
            <g id="Row-2" data-name="Row" transform="translate(-0.449 0.232)">
              <rect id="Container-2" data-name="Container" width="110" height="18" rx="5" transform="translate(0.449 -0.232)" fill="#fff"/>
              <g id="Group_51" data-name="Group 51" transform="translate(7.128 3.564)">
                <g id="Group_52" data-name="Group 52" transform="translate(0 0)">
                  <rect id="Label" width="63.263" height="3.776" rx="1.888" fill="#e9e5f4"/>
                  <rect id="Label-2" data-name="Label" width="42.464" height="3.776" rx="1.888" transform="translate(0 6.293)" fill="#e9e5f4"/>
                </g>
                <g id="Check" transform="translate(84.357 0)">
                  <rect id="Rectangle_18" data-name="Rectangle 18" width="12" height="10" rx="4" transform="translate(-0.036 0.204)" fill="#e9e5f4"/>
                  <circle id="Indicator" cx="2.197" cy="2.197" r="2.197" transform="translate(3.564 3.564)" fill="#fff"/>
                </g>
              </g>
            </g>
            <g id="Row-3" data-name="Row" transform="translate(-0.449 26.232)">
              <rect id="Container-3" data-name="Container" width="110" height="18" rx="5" transform="translate(0.449 -0.232)" fill="#fff"/>
              <g id="Group_51-2" data-name="Group 51" transform="translate(7.128 3.564)">
                <g id="Group_52-2" data-name="Group 52" transform="translate(0 0)">
                  <rect id="Label-3" data-name="Label" width="63.263" height="3.776" rx="1.888" fill="#e9e5f4"/>
                  <rect id="Label-4" data-name="Label" width="42.464" height="3.776" rx="1.888" transform="translate(0 6.293)" fill="#e9e5f4"/>
                </g>
                <g id="Check-2" data-name="Check" transform="translate(84.357 0)">
                  <rect id="Rectangle_18-2" data-name="Rectangle 18" width="12" height="10" rx="4" transform="translate(-0.036 0.204)" fill="#e9e5f4"/>
                  <circle id="Indicator-2" data-name="Indicator" cx="2.197" cy="2.197" r="2.197" transform="translate(3.564 3.564)" fill="#fff"/>
                </g>
              </g>
            </g>
            <g id="Row-4" data-name="Row" transform="translate(-0.449 52.232)">
              <rect id="Container-4" data-name="Container" width="110" height="18" rx="5" transform="translate(0.449 -0.232)" fill="#fff"/>
              <g id="Group_51-3" data-name="Group 51" transform="translate(7.128 3.564)">
                <g id="Group_52-3" data-name="Group 52" transform="translate(0 0)">
                  <rect id="Label-5" data-name="Label" width="63.263" height="3.776" rx="1.888" fill="#e9e5f4"/>
                  <rect id="Label-6" data-name="Label" width="42.464" height="3.776" rx="1.888" transform="translate(0 6.293)" fill="#e9e5f4"/>
                </g>
                <g id="Check-3" data-name="Check" transform="translate(84.357 0)">
                  <rect id="Rectangle_18-3" data-name="Rectangle 18" width="12" height="10" rx="4" transform="translate(-0.036 0.204)" fill="#e9e5f4"/>
                  <circle id="Indicator-3" data-name="Indicator" cx="2.197" cy="2.197" r="2.197" transform="translate(3.564 3.564)" fill="#fff"/>
                </g>
              </g>
            </g>
            <g id="Row-5" data-name="Row" transform="translate(-0.449 78.232)">
              <rect id="Container-5" data-name="Container" width="110" height="18" rx="5" transform="translate(0.449 -0.232)" fill="#fff"/>
              <g id="Group_51-4" data-name="Group 51" transform="translate(7.128 3.564)">
                <g id="Group_52-4" data-name="Group 52" transform="translate(0 0)">
                  <rect id="Label-7" data-name="Label" width="63.263" height="3.776" rx="1.888" fill="#e9e5f4"/>
                  <rect id="Label-8" data-name="Label" width="42.464" height="3.776" rx="1.888" transform="translate(0 6.293)" fill="#e9e5f4"/>
                </g>
                <g id="Check-4" data-name="Check" transform="translate(84.357 0)">
                  <rect id="Rectangle_18-4" data-name="Rectangle 18" width="12" height="10" rx="4" transform="translate(-0.036 0.204)" fill="#e9e5f4"/>
                  <circle id="Indicator-4" data-name="Indicator" cx="2.197" cy="2.197" r="2.197" transform="translate(3.564 3.564)" fill="#fff"/>
                </g>
              </g>
            </g>
            <g id="Row-6" data-name="Row" transform="translate(-0.449 104.232)">
              <rect id="Container-6" data-name="Container" width="110" height="18" rx="5" transform="translate(0.449 -0.232)" fill="#fff"/>
              <g id="Group_51-5" data-name="Group 51" transform="translate(7.128 3.564)">
                <g id="Group_52-5" data-name="Group 52" transform="translate(0 0)">
                  <rect id="Label-9" data-name="Label" width="63.263" height="3.776" rx="1.888" fill="#e9e5f4"/>
                  <rect id="Label-10" data-name="Label" width="42.464" height="3.776" rx="1.888" transform="translate(0 6.293)" fill="#e9e5f4"/>
                </g>
                <g id="Check-5" data-name="Check" transform="translate(84.357 0)">
                  <rect id="Rectangle_18-5" data-name="Rectangle 18" width="12" height="10" rx="4" transform="translate(-0.036 0.204)" fill="#e9e5f4"/>
                  <circle id="Indicator-5" data-name="Indicator" cx="2.197" cy="2.197" r="2.197" transform="translate(3.564 3.564)" fill="#fff"/>
                </g>
              </g>
            </g>
          </g>
        </g>
        <g id="extension_btn" data-name="extension btn" transform="translate(109.356 -18.689)">
          <path id="Path_145" data-name="Path 145" d="M4,0H15a4,4,0,0,1,4,4V14a4,4,0,0,1-4,4H4a4,4,0,0,1-4-4V4A4,4,0,0,1,4,0Z" transform="translate(0.092 -0.027)" fill="#e9e5f4"/>
          <text id="K" transform="translate(5.092 12.973)" fill="#fff" font-size="11" font-family="Arial-Black, Arial Black" font-weight="800"><tspan x="0" y="0">K</tspan></text>
          <path id="FontAwsome_mouse-pointer_" data-name="FontAwsome (mouse-pointer)" d="M7.314,7.966H4.746L6.1,11.257a.45.45,0,0,1-.229.581l-1.19.519a.428.428,0,0,1-.565-.235L2.83,9l-2.1,2.157A.428.428,0,0,1,0,10.842V.443A.428.428,0,0,1,.733.132l6.883,7.08a.444.444,0,0,1-.3.754Z" transform="translate(14.256 10.816)" fill="#fff" stroke="#57419d" stroke-width="1"/>
        </g>
      </g>
      <g id="Group_22" data-name="Group 22" transform="translate(3.506 111.937)">
        <path id="Path_41" data-name="Path 41" d="M108.465,109.323,106.9,89.977H90.356L79.617,105.143Z" transform="translate(19.662 23.658)" fill="#ffd6c4" fill-rule="evenodd"/>
        <path id="Path_42" data-name="Path 42" d="M103.35,109.324l-1.57-19.347H92.931c.217,5.061-.756,11.016-2.1,17.533Z" transform="translate(24.777 23.658)" fill="#ffc9b1" fill-rule="evenodd"/>
        <path id="Path_43" data-name="Path 43" d="M100.616,56.762c.518,10.314-13.856,19.954-30.371,13.667-3.213-1.223-7.59,1.466-13.01,3.815,6.322-4.407,8.986-6.441,13.064-5.6,5.1,1.048,10.541,1.256,14.932-.022A26.013,26.013,0,0,0,100.616,56.762Z" transform="translate(9.456 8.514)" fill="#e09d16" fill-rule="evenodd"/>
        <path id="Path_44" data-name="Path 44" d="M72.241,59.783c-5.879,1.74-8.032.868-11.86,5.741C57.9,68.678,57.73,76.4,54.145,79.977c4.419.9,10.65-7.08,15-6.97,6.734.172,17.888,2.75,23.259,1.331,9.6-2.538,13.695-15.258,6.971-25.775-2.535-3.965-9.1-5.169-14.389-3.922C72.989,47.467,76.848,58.42,72.241,59.783Z" transform="translate(8.048 2.773)" fill="#f2b236" fill-rule="evenodd"/>
        <path id="Path_45" data-name="Path 45" d="M54.145,78.1c4.419.9,10.65-7.08,15-6.97,6.734.172,16.8,2.791,22.171,1.372,9.6-2.536,12.521-14.212,5.3-24.224-2.065,5.649-3.531,5.24-5.464,7.722-7.987,10.253-14.811,2.609-26.08,9.318C61.531,67.428,58.693,76.908,54.145,78.1Z" transform="translate(8.048 4.647)" fill="#e09d16" fill-rule="evenodd"/>
        <path id="Path_46" data-name="Path 46" d="M96.572,74.6l16.072-10.259L100.567,48.218l-3.788-1.609-1.934-2.928.354-.651-1.89-3.106,1.612-1.834,5.669,3.675,2.546,4.81,16.225,16.85c1.063,1.353.259,3.254-1.542,4.551L103.937,79.867c-6.364,5.26-5.626,5.052-6.1,12.82l-5.56-5.112L87.4,76.989C91.1,77.7,91.531,75.192,96.572,74.6Z" transform="translate(23.212 0)" fill="#ffc9b1" fill-rule="evenodd"/>
        <path id="Path_47" data-name="Path 47" d="M97.322,62.968c1.179,3.644,1.5,5.9.278,7.054-1.265,1.2-3.978.847-6.1,2.171a26.4,26.4,0,0,0-4.55,3.877L70.508,85.621,47.756,76.507l0,0-2.166-3.74-3.834-1.51-.7.61-2.718.278L36.494,74.6l4.129,4.119,5.3.52L66.88,90.305c3.947,2.363,2.76,2.18,7.086.534l18.006-7.286A10.393,10.393,0,0,1,97.657,87l9.631,3.935,11.723-8.207,1.508-9.714-1.759-6.951,4.48-3.937a23.006,23.006,0,0,1-5.409,1.9c-5.9-.459-6.729,2.376-9.563,2.8-2.054.312-2.415-1.612-4.164-6.047Z" transform="translate(0 10.35)" fill="#ffd6c4" fill-rule="evenodd"/>
        <path id="Path_48" data-name="Path 48" d="M93.513,86.528l5.425-3.8,1.508-9.714-1.759-6.951,4.48-3.937a23.006,23.006,0,0,1-5.409,1.9c-5.9-.459-6.729,2.376-9.563,2.8-2.054.312-2.415-1.612-4.164-6.047l-3.513,1.128a68.421,68.421,0,0,0,3.585,8.2C87.6,76.682,90.973,81.115,93.513,86.528Z" transform="translate(20.073 10.35)" fill="#fdc2a4" fill-rule="evenodd"/>
        <path id="Path_49" data-name="Path 49" d="M85.877,71.229c-1.265,1.2-3.978.847-6.1,2.171-2.8,1.749-4.378,3.78-7.654,5.649l-9.914,5.659,2.538,6.527L80.918,85.18c1.6.511,2.225.549,3.359,1.465l0,.052a7.178,7.178,0,0,0,5.279,6.387l8.394,11.289-4.014,5.106,21.857,2.3-.949-8.372L113.271,85.37a7.178,7.178,0,0,0-1.507-11.2l13.53-11.588-5.653-4.439c-.718.339-5.755,3.382-8.868,5.179-4.055,2.34-3.5,1.653-7.342,2.116-3.573.431-4.548,2.252-6.884,2.6C96.775,71.309,89.859,73.611,85.877,71.229Z" transform="translate(11.723 9.144)" fill="#fc7361" fill-rule="evenodd"/>
        <path id="Path_50" data-name="Path 50" d="M79.927,84.174a7.106,7.106,0,0,0,1.554.625l8.394,11.289-3.058,3.889c9.3-5.543,12.447-9.2,18.661-19.61l-.287-3.282a7.059,7.059,0,0,0,.649-.769c-2.7,1.909-6.772,2.975-11.632,3.285C90.756,82.706,84.7,83.951,79.927,84.174Z" transform="translate(19.803 17.429)" fill="#e56558" fill-rule="evenodd"/>
        <path id="Path_51" data-name="Path 51" d="M96.2,110.724l10.045,1.058-.949-8.372L103.721,85.37a7.178,7.178,0,0,0-1.507-11.2l13.53-11.588-5.653-4.439c-.718.339-5.755,3.382-8.868,5.179-4.055,2.34-3.5,1.653-7.342,2.116-3.573.431-4.548,2.252-6.884,2.6.116,1.655-1.6,3.062-3.847,3.737,6,11.131,11.6,16.155,13.157,30.954A39.221,39.221,0,0,1,96.2,110.724Z" transform="translate(21.273 9.144)" fill="#e56558" fill-rule="evenodd"/>
        <path id="Path_52" data-name="Path 52" d="M97.432,72.337l-.017-.01,11.837-10.138c-5.528,3.976-7.734,5.731-15.576,7.521C95.545,71.35,95.752,71.8,97.432,72.337Z" transform="translate(26.072 10.988)" fill="#de5445" fill-rule="evenodd"/>
        <path id="Path_53" data-name="Path 53" d="M101.084,80.366l-.287-3.282a7.059,7.059,0,0,0,.649-.769c-2.7,1.909-6.772,2.975-11.632,3.285-.083.074-.167.147-.253.22a43.244,43.244,0,0,1,3.493,12.023C95.719,88.965,98.031,85.48,101.084,80.366Z" transform="translate(24.196 17.429)" fill="#de5445" fill-rule="evenodd"/>
        <path id="Path_54" data-name="Path 54" d="M87.116,140.983a36.818,36.818,0,0,1-5.339,2.915c-2.677.975-3.67-.786-5.466,2.479-.735,1.334.526,1.788,2.05,6.108-.371,4.052.684,5.667,2.734,9.017.776-4.462.927-3.18,2.98-8.315,2-3.732,2.437-4.535,5.547-7.39Z" transform="translate(18.057 46.914)" fill="#ffc9b1" fill-rule="evenodd"/>
        <g id="Group_21" data-name="Group 21" transform="translate(88.718 51.661)">
          <path id="Path_55" data-name="Path 55" d="M81.018,70.168A12.177,12.177,0,0,1,77.9,67.857a10.491,10.491,0,0,1-1.983-2.549c-.687.323-1.127-.194-1.514-.978-.568-1.149-1.354-2.242-1.827-3.256-.581-1.243.089-2.184,1.07-1.287a14.4,14.4,0,0,1-.671-3.321c-.266-4.081,1.587-7.683,5.757-8.679,4.615-1.1,7.313.181,9.06,4.429a19.473,19.473,0,0,1,1.121,3.569c.505-.785,1.328-.231,1.377.993.042,1.118-.156,2.45-.134,3.732.016.847-.13,1.494-.828,1.559a10.693,10.693,0,0,1-.76,3.71A12.7,12.7,0,0,1,87.126,68.6C85.96,70.239,85.3,71,84.473,71.2,83.629,71.405,82.616,71.018,81.018,70.168Z" transform="translate(-72.364 -47.411)" fill="#ffd6c4" fill-rule="evenodd"/>
          <path id="Path_56" data-name="Path 56" d="M75.822,48.226a8.264,8.264,0,0,1,1.337-.44c4.615-1.1,7.313.181,9.06,4.429a19.473,19.473,0,0,1,1.121,3.569c.505-.785,1.328-.231,1.377.993.042,1.118-.156,2.45-.134,3.732.016.847-.13,1.494-.828,1.559a10.694,10.694,0,0,1-.76,3.71A12.7,12.7,0,0,1,85.549,68.6c-1.093,1.54-1.743,2.306-2.5,2.561A130.749,130.749,0,0,0,75.822,48.226Z" transform="translate(-70.787 -47.411)" fill="#ffc9b1" fill-rule="evenodd"/>
        </g>
        <path id="Path_57" data-name="Path 57" d="M81.066,143.047c-2.115-.246-4.7-.741-5.518,1.848-.625,1.974.85,3.126,2.718,7.309-.036,3.234,1.733,7.111,3.621,10.161,1.791,2.893,2.859,2.468,2.954-1.056.055-2.075-1.1-7.379-.43-8.79Z" transform="translate(17.74 47.761)" fill="#57419d" fill-rule="evenodd"/>
        <path id="Path_58" data-name="Path 58" d="M74.772,117.429a36.72,36.72,0,0,1-4.891-3.62c-2.011-2.018-.83-3.66-4.548-3.917-1.519-.1-1.4,1.229-4.678,4.43-3.832,1.366-4.854,3-7.031,6.271,4.375-1.171,3.274-.494,8.8-.792,4.228.25,5.14.3,9.039,1.925Z" transform="translate(7.81 32.736)" fill="#fdc2a4" fill-rule="evenodd"/>
        <path id="Path_59" data-name="Path 59" d="M62.412,126.908l4.126-6.146L90.924,130.9l-4.7-18.917c-.923-3.9-.644-6.725.945-8.915l5.39-7.612,23.113,3.465.642,7.907.574,2.7,11.76,30.029c1.417,3.618,1.572,6.786-2.025,9.154L92.474,170.539l-3.842-6.328,19.728-18.116,10.1-4.406-16.481-28.264-.5-.146,1.508,29.876c-.536,4.532-2.535,6.941-4.841,6.033Z" transform="translate(11.817 26.155)" fill="#60ccbc" fill-rule="evenodd"/>
        <path id="Path_60" data-name="Path 60" d="M62.412,118.159l2.36-3.515a208.237,208.237,0,0,1,25.16,16.164c4.264,3.253,8.6,7.462,11.875,7.786-.919,1.7-2.229,2.407-3.656,1.845Z" transform="translate(11.817 34.905)" fill="#64beb2" fill-rule="evenodd"/>
        <path id="Path_61" data-name="Path 61" d="M96.984,96.756l10.473,1.57.642,7.907.574,2.7,11.76,30.029c1.417,3.618,1.572,6.786-2.025,9.154L84.263,169.945l-3.842-6.328L100.149,145.5l10.1-4.406L93.778,112.843C95.015,107.13,96.237,101.706,96.984,96.756Z" transform="translate(20.029 26.749)" fill="#64beb2" fill-rule="evenodd"/>
        <path id="Path_62" data-name="Path 62" d="M102.832,97.443l3.8.569.642,7.907.574,2.7,11.76,30.029c1.417,3.618,1.572,6.786-2.025,9.154L83.436,169.632l-1.2-1.979,23.652-18.55,9.419-4.119c2.95-2.193,2.083-3.107.131-7.872-4.149-10.126-8.322-18.9-13.569-29.211Z" transform="translate(20.856 27.062)" fill="#55b5a8" fill-rule="evenodd"/>
        <path id="Path_63" data-name="Path 63" d="M70.184,113.273c-.665-2.022-1.3-4.575-4-4.228-2.054.264-2.479,2.086-5.489,5.54-2.948,1.326-5.722,4.563-7.695,7.558-1.871,2.842-1.037,3.633,2.2,2.236,1.906-.823,6.23-4.1,7.794-4.087Z" transform="translate(7.079 32.338)" fill="#57419d" fill-rule="evenodd"/>
        <path id="Path_64" data-name="Path 64" d="M89.352,49.659c-7.4,1.22-2.708,19.217-19.594,18.294-3.435-.188-7.015,2.3-10.889,6.074,3.43-4.915,6.9-7.871,11.061-7.655,9.215.479,6.965-4.857,7.163-10.518.345-9.873,14.6-13.141,17.56-6.466,2.094,4.726-.447,6.751.866,11.183C92.392,56.467,93.672,51.566,89.352,49.659Z" transform="translate(10.202 3.556)" fill="#f2b236" fill-rule="evenodd"/>
        <ellipse id="Ellipse_1" data-name="Ellipse 1" cx="34.5" cy="7" rx="34.5" ry="7" transform="translate(68.494 234.063)" fill="#f7f6fd"/>
      </g>
    </g>
  </g>
</svg>
