<svg xmlns="http://www.w3.org/2000/svg" xmlns:xlink="http://www.w3.org/1999/xlink" width="350" height="600" viewBox="0 0 350 600"><defs><clipPath id="a"><rect width="110" height="125" fill="none"/></clipPath><linearGradient id="b" x1="0.5" y1="0.059" x2="0.5" y2="1.189" gradientUnits="objectBoundingBox"><stop offset="0" stop-color="#09005d"/><stop offset="1" stop-color="#1a0f91"/></linearGradient><linearGradient id="c" x1="0.5" y1="0.059" x2="0.5" y2="1.189" gradientUnits="objectBoundingBox"><stop offset="0" stop-color="#fe7062"/><stop offset="1" stop-color="#ff928e"/></linearGradient><linearGradient id="d" x1="0.5" y1="-1.04" x2="0.5" y2="2.16" xlink:href="#b"/><linearGradient id="e" x1="3.788" y1="-6.36" x2="0.301" y2="1.144" gradientUnits="objectBoundingBox"><stop offset="0" stop-color="#ff928e"/><stop offset="1" stop-color="#feb3b1"/></linearGradient><linearGradient id="f" x1="0.839" y1="-1.678" x2="0.607" y2="-0.171" xlink:href="#b"/><linearGradient id="g" x1="0.68" y1="-0.834" x2="0.659" y2="-4.763" xlink:href="#b"/><linearGradient id="h" x1="2.58" y1="-4.058" x2="-0.86" y2="3.366" xlink:href="#e"/><linearGradient id="i" x1="0.448" y1="-0.864" x2="0.472" y2="-0.217" xlink:href="#b"/><linearGradient id="j" x1="0.511" y1="1.753" x2="0.489" y2="-0.794" xlink:href="#e"/><linearGradient id="k" x1="0.345" y1="-2.504" x2="0.405" y2="-1.33" xlink:href="#e"/><linearGradient id="l" x1="0.432" y1="-1.102" x2="0.448" y2="-0.722" xlink:href="#e"/><linearGradient id="m" x1="0.677" y1="-2.353" x2="0.594" y2="-0.988" xlink:href="#e"/><linearGradient id="n" x1="0.799" y1="-1.023" x2="0.638" y2="-0.177" xlink:href="#e"/><linearGradient id="o" x1="0.074" y1="-1.356" x2="0.38" y2="-0.086" xlink:href="#e"/><linearGradient id="p" x1="-2.072" y1="-6.986" x2="-0.343" y2="-1.941" xlink:href="#e"/><linearGradient id="q" x1="-1.718" y1="-6.659" x2="-0.115" y2="-1.408" xlink:href="#e"/><clipPath id="s"><rect width="350" height="600"/></clipPath></defs><g id="r" clip-path="url(#s)"><rect width="350" height="600" fill="#fff"/><g transform="translate(-351.5 -0.657)"><path d="M-317.009-1572.05c-25.885-3.053-51.37-6.618-79.154-14.5-63.845-18.11-97.938-69.871-192.223-84.222a270.413,270.413,0,0,0-39.7-3.167v-146.025c38.553-.056,87.676,4.614,129.873,23.531,84.331,37.807,98.824,64.781,193.508,76.189a234.1,234.1,0,0,0,26.619,1.713v148.487q-1.065.006-2.129.006A318.323,318.323,0,0,1-317.009-1572.05Z" transform="translate(978.588 1925)" fill="#f7f6fd"/><g opacity="0.5"><path d="M571.937,465.924h47.252a10.037,10.037,0,1,0,0-20.069,10.417,10.417,0,0,0-5.634,1.64,9.953,9.953,0,0,0-16.535-9.7,8.144,8.144,0,1,0-15.418,4.956q-.245-.016-.495-.017a7.283,7.283,0,0,0-6.965,9.4,7.074,7.074,0,1,0-2.206,13.8Z" transform="translate(-180.771 -118.544)" fill="#d1c9e8" fill-rule="evenodd" opacity="0.3"/><path d="M930.368,201.031H980.5a10.648,10.648,0,1,0,0-21.29,11.049,11.049,0,0,0-5.977,1.74,10.559,10.559,0,0,0-17.541-10.3,8.639,8.639,0,1,0-16.356,5.258q-.26-.017-.525-.018a7.726,7.726,0,0,0-7.389,9.97,7.5,7.5,0,1,0-2.34,14.636Z" transform="translate(-343.189 -97.121)" fill="#d1c9e8" fill-rule="evenodd" opacity="0.3"/></g><g transform="translate(0 -13)"><path d="M641.809,127l1.67,10.139,10.139,1.67-10.139,1.67-1.67,10.139-1.67-10.139L630,138.809l10.139-1.67Z" transform="translate(-247.784 -89.536)" fill="#d1c9e8" fill-rule="evenodd" opacity="0.5"/><path d="M882.809,521l1.67,10.139,10.139,1.67-10.139,1.67-1.67,10.139-1.67-10.139L871,532.81l10.139-1.67Z" transform="translate(-303.17 -138.812)" fill="#d1c9e8" fill-rule="evenodd" opacity="0.5"/><path d="M840.207,100.225l1.094,6.645,6.645,1.095-6.645,1.095-1.094,6.645-1.095-6.645-6.645-1.095,6.645-1.095Z" transform="translate(-294.072 -84.567)" fill="#d1c9e8" fill-rule="evenodd" opacity="0.5"/><path d="M899.207,416.225l1.095,6.645,6.645,1.095-6.645,1.095-1.095,6.645-1.095-6.645-6.645-1.095,6.645-1.095Z" transform="translate(-307.611 -125.993)" fill="#d1c9e8" fill-rule="evenodd" opacity="0.5"/><path d="M990.809,153l1.67,10.139,10.139,1.67-10.139,1.67-1.67,10.139-1.67-10.139L979,164.809l10.139-1.67Z" transform="translate(-327.99 -84.36)" fill="#d1c9e8" fill-rule="evenodd" opacity="0.5"/></g></g><g transform="translate(-354 -27)"><text transform="translate(449 439)" fill="#57419d" font-size="22" font-family="AirbnbCerealApp-Medium, Airbnb Cereal App" font-weight="500"><tspan x="0" y="0">Stay Organized</tspan></text><g transform="translate(365 -41)"><text transform="translate(70 532)" fill="#57419d" font-size="11" font-family="AirbnbCerealApp-Book, Airbnb Cereal App"><tspan x="0" y="0">Organize your Links with meaningful Tags to </tspan><tspan x="0" y="14">keep them clean and accessible.</tspan></text><path d="M23,15.5A7.5,7.5,0,1,1,15.5,8,7.5,7.5,0,0,1,23,15.5Zm-8.368,3.971L20.2,13.907a.484.484,0,0,0,0-.684l-.684-.684a.484.484,0,0,0-.684,0L14.29,17.076l-2.119-2.119a.484.484,0,0,0-.684,0l-.684.684a.484.484,0,0,0,0,.684l3.145,3.145a.484.484,0,0,0,.684,0Z" transform="translate(29 519)" fill="#57419d"/></g><g transform="translate(401.727 11)"><path d="M11.273,8a3.273,3.273,0,1,0,3.273,3.273A3.272,3.272,0,0,0,11.273,8Z" transform="translate(101.5 551)" fill="none" stroke="#bbb5cc" stroke-width="1"/><path d="M11.273,8a3.273,3.273,0,1,0,3.273,3.273A3.272,3.272,0,0,0,11.273,8Z" transform="translate(114.5 551)" fill="#bbb5cc" stroke="#bbb5cc" stroke-width="1"/><path d="M11.273,8a3.273,3.273,0,1,0,3.273,3.273A3.272,3.272,0,0,0,11.273,8Z" transform="translate(128.5 551)" fill="#fff" stroke="#bbb5cc" stroke-width="1"/></g></g><g transform="translate(-349.5 -37.418)"><g transform="translate(461.052 196.017)"><rect width="127" height="135" rx="8" transform="translate(0.448 10.284)" fill="#d1c9e8"/><g transform="translate(3.623 7.448)"><circle cx="1.5" cy="1.5" r="1.5" transform="translate(-0.175 -0.163)" fill="#f2f2f2"/><ellipse cx="1" cy="1.5" rx="1" ry="1.5" transform="translate(4.825 -0.163)" fill="#f2f2f2"/><ellipse cx="2" cy="1.5" rx="2" ry="1.5" transform="translate(7.825 -0.163)" fill="#f2f2f2"/></g><g transform="translate(7.999 18.516)"><g transform="translate(0.449 -0.232)" clip-path="url(#a)"><g transform="translate(-0.449 0.232)"><rect width="110" height="18" rx="5" transform="translate(0.449 -0.232)" fill="#fff"/><g transform="translate(7.128 3.564)"><g transform="translate(0 0)"><rect width="63.263" height="3.776" rx="1.888" fill="#d1c9e8"/><rect width="42.464" height="3.776" rx="1.888" transform="translate(0 6.293)" fill="#d1c9e8"/></g><g transform="translate(84.357 0)"><rect width="12" height="10" rx="4" transform="translate(-0.036 0.204)" fill="#d1c9e8"/><circle cx="2.197" cy="2.197" r="2.197" transform="translate(3.564 3.564)" fill="#fff"/></g></g></g><g transform="translate(-0.449 26.232)"><rect width="110" height="18" rx="5" transform="translate(0.449 -0.232)" fill="#fff"/><g transform="translate(7.128 3.564)"><g transform="translate(0 0)"><rect width="63.263" height="3.776" rx="1.888" fill="#d1c9e8"/><rect width="42.464" height="3.776" rx="1.888" transform="translate(0 6.293)" fill="#d1c9e8"/></g><g transform="translate(84.357 0)"><rect width="12" height="10" rx="4" transform="translate(-0.036 0.204)" fill="#d1c9e8"/><circle cx="2.197" cy="2.197" r="2.197" transform="translate(3.564 3.564)" fill="#fff"/></g></g></g><g transform="translate(-0.449 52.232)"><rect width="110" height="18" rx="5" transform="translate(0.449 -0.232)" fill="#fff"/><g transform="translate(7.128 3.564)"><g transform="translate(0 0)"><rect width="63.263" height="3.776" rx="1.888" fill="#d1c9e8"/><rect width="42.464" height="3.776" rx="1.888" transform="translate(0 6.293)" fill="#d1c9e8"/></g><g transform="translate(84.357 0)"><rect width="12" height="10" rx="4" transform="translate(-0.036 0.204)" fill="#d1c9e8"/><circle cx="2.197" cy="2.197" r="2.197" transform="translate(3.564 3.564)" fill="#fff"/></g></g></g><g transform="translate(-0.449 78.232)"><rect width="110" height="18" rx="5" transform="translate(0.449 -0.232)" fill="#fff"/><g transform="translate(7.128 3.564)"><g transform="translate(0 0)"><rect width="63.263" height="3.776" rx="1.888" fill="#d1c9e8"/><rect width="42.464" height="3.776" rx="1.888" transform="translate(0 6.293)" fill="#d1c9e8"/></g><g transform="translate(84.357 0)"><rect width="12" height="10" rx="4" transform="translate(-0.036 0.204)" fill="#d1c9e8"/><circle cx="2.197" cy="2.197" r="2.197" transform="translate(3.564 3.564)" fill="#fff"/></g></g></g><g transform="translate(-0.449 104.232)"><rect width="110" height="18" rx="5" transform="translate(0.449 -0.232)" fill="#fff"/><g transform="translate(7.128 3.564)"><g transform="translate(0 0)"><rect width="63.263" height="3.776" rx="1.888" fill="#d1c9e8"/><rect width="42.464" height="3.776" rx="1.888" transform="translate(0 6.293)" fill="#d1c9e8"/></g><g transform="translate(84.357 0)"><rect width="12" height="10" rx="4" transform="translate(-0.036 0.204)" fill="#d1c9e8"/><circle cx="2.197" cy="2.197" r="2.197" transform="translate(3.564 3.564)" fill="#fff"/></g></g></g></g></g></g><g transform="translate(338.284 -475.649)"><path d="M157.456,851.589l30.722,7.553,31.8,1.814,39.841-9.366-51.183,25.889Z" transform="translate(-18.316 -71.612)" fill="url(#b)"/><path d="M193.625,759.305a27.962,27.962,0,0,1,8.5-3.953c1.141-.311,7.3,1.48,11.114,1.393,5.23-.12,10.553-2.5,14.863-1.426a31.082,31.082,0,0,1,9.809,3.9c6.057,4.307,9.613,12.34,11.78,20.3a27.729,27.729,0,0,1-9.267,6.085l-5.352,35.038c-12.615,6.329-25.32,5.514-38.095-.884l-5.543-34.678s-8.289-3.86-8.9-5.264S186.312,764.333,193.625,759.305Z" transform="translate(-29.429 -28.732)" fill="url(#c)"/><g transform="translate(149.928 805.352)"><path d="M179.362,897.752c5.77-1.141,19.011-.026,19.011-.026l.5,1.477.712,7.287s-12.684,1.888-18.908,1.692a5.886,5.886,0,0,1-1.74-.315c-.186-.176-.366-.359-.537-.555C175.834,904.347,176.7,900.134,179.362,897.752Z" transform="translate(-176.863 -897.238)" fill="url(#d)"/><path d="M217.084,897.591l-2.248.027a4.3,4.3,0,0,0-3.2,1.534,5.3,5.3,0,0,0-1.248,3.6,4.217,4.217,0,0,0,1.146,2.806,3.42,3.42,0,0,0,2.6,1.078l3.441-.139Z" transform="translate(-191.754 -897.395)" fill="url(#e)"/></g><path d="M298,853.939c-2.6-5.991-8.968-6.963-14.386-4.162-.094.124-34.407,17.709-64.667,25.417a32.879,32.879,0,0,1,1.409,8.637q.027.97-.031,1.915c23.2-1.192,48.389-8.93,70.03-15.731C297.061,867.85,300.881,860.577,298,853.939Z" transform="translate(-45.624 -70.141)" fill="url(#f)"/><g transform="translate(123.594 777.317)"><g transform="translate(72.806 28.229)"><path d="M286.478,898.78c-5.739-1.317-19-.609-19-.609l-.54,1.461-.893,7.262s12.632,2.277,18.859,2.271a5.871,5.871,0,0,0,1.747-.261c.19-.17.375-.347.551-.539C289.84,905.481,289.077,901.243,286.478,898.78Z" transform="translate(-262.941 -897.763)" fill="url(#g)"/><path d="M261.186,897.588l2.246.1a4.328,4.328,0,0,1,3.156,1.632,5.325,5.325,0,0,1,1.157,3.641,4.189,4.189,0,0,1-1.215,2.77,3.4,3.4,0,0,1-2.628,1l-3.437-.245Z" transform="translate(-260.465 -897.588)" fill="url(#h)"/></g><path d="M203.181,883.632a19.956,19.956,0,0,1,1.953-9.35c.04-.132.087-.259.13-.39-1.728-.535-3.96-1.26-6.893-2.255a330.788,330.788,0,0,1-53.525-23.326c-6.078-3.32-12.988-1.1-14.934,6.1-1.737,6.42,2.077,11.9,7.866,13.827,17.318,5.763,48.048,14.958,65.439,16.126C203.2,884.117,203.189,883.875,203.181,883.632Z" transform="translate(-129.489 -846.804)" fill="url(#i)"/></g><path d="M217.818,747.652a13.253,13.253,0,0,0,13.53,9.807c11.428-.208,12.446-9.839,12.446-9.839l-7.465-1.6-.624-8.318-11.229.832-.208,7.9Z" transform="translate(-45.125 -21.033)" fill="url(#j)"/><path d="M134.393,839.754a8.68,8.68,0,0,1-3.484-.3c-1.269-.547-6.264-1.011-7.321-2.5,0,0-1.221,1.926.549,2.645s4.474,1.983,2.548,3.676-2.784.277-2.666-1.7-.406-1.844-1.366-2.105c0,0-2.163,3.247.534,5.181,0,0-7.4-1.305-6.953,1.648l6.938.028s-7.141,1.544-5.495,4.257l6.214-2.106s-3.821,1.339-3.006,3.207c0,0,11.846-6.112,14.029-6.6S134.393,839.754,134.393,839.754Z" transform="translate(0 -65.112)" fill="url(#k)"/><path d="M168.714,798.757s-8.593,19-19.8,23.892l.523,5.334s16.626-.609,28.5-23.821C177.935,804.163,174.755,796.85,168.714,798.757Z" transform="translate(-14.523 -48.007)" fill="url(#l)"/><path d="M336.2,839.754a8.68,8.68,0,0,0,3.484-.3c1.268-.547,6.264-1.011,7.321-2.5,0,0,1.221,1.926-.549,2.645s-4.474,1.983-2.548,3.676,2.784.277,2.666-1.7.406-1.844,1.366-2.105c0,0,2.163,3.247-.535,5.181,0,0,7.4-1.305,6.953,1.648l-6.938.028s7.141,1.544,5.495,4.257l-6.213-2.106s3.82,1.339,3.005,3.207c0,0-11.846-6.112-14.029-6.6S336.2,839.754,336.2,839.754Z" transform="translate(-97.093 -65.112)" fill="url(#m)"/><path d="M294.316,798.757s8.593,19,19.8,23.892l-.522,5.334s-16.626-.609-28.5-23.821C285.1,804.163,288.275,796.85,294.316,798.757Z" transform="translate(-75.004 -48.007)" fill="url(#n)"/><g transform="translate(173.544 690.347)"><path d="M225.161,705.431s-4.933,20.247,7.608,23.433c8.846,2.247,12.021-14.705,9.878-18.91-3.314-6.5-4.812-5.485-4.812-5.485Z" transform="translate(-221.505 -696.594)" fill="url(#o)"/><path d="M256.745,722.4s.6-3.956,2.533-3.284.307,5.717-2.316,6.132Z" transform="translate(-235.957 -703.092)" fill="url(#p)"/><path d="M222.994,725.123l-.316-2.689s-.788-3.7-2.5-3.178S219.379,725.771,222.994,725.123Z" transform="translate(-219.348 -703.164)" fill="url(#q)"/><path d="M221.808,707.322a.48.48,0,0,0,.928-.147c.153-3.085.8-7.758,3.412-5.7a8.279,8.279,0,0,0,9.595.43,2.315,2.315,0,0,1,3.371.989,16.408,16.408,0,0,1,.9,4.359.6.6,0,0,0,1.152.192l.408-.893a.158.158,0,0,0,.014-.064v-1.2a.155.155,0,0,1,.131-.153c.417-.067,1.641-.4.854-1.955a.16.16,0,0,1,.056-.206c.305-.189.987-.827.255-2.5a.148.148,0,0,1,.047-.183,4.418,4.418,0,0,0,1.618-5.765c-1.59-3.171-3.828-2.02-4.394-1.658a.146.146,0,0,1-.211-.052,2.337,2.337,0,0,0-3.08-1.206,2.342,2.342,0,0,1-2.1-.227,2.232,2.232,0,0,0-2.74-.1,2.282,2.282,0,0,1-2.753-.032c-1.1-.892-2.854-1.508-5.3.051-3.943,2.511-3.241,5.863-3,6.677a.15.15,0,0,1-.128.193,1.591,1.591,0,0,0-1.459,1.728c-.054,1.738,1.508,4.467,1.639,4.693a.121.121,0,0,1,.014.034l.755,2.679.005.015Z" transform="translate(-219.368 -690.347)" fill="#261445"/></g></g><g transform="translate(-12.5 -9)"><g transform="translate(-14 47.981)"><rect width="57" height="22" rx="11" transform="translate(414 163.438)" fill="#d1c9e8"/><text transform="translate(433.4 177.238)" fill="#fff" font-size="8" font-family="AirbnbCerealApp-Bold, Airbnb Cereal App" font-weight="700"><tspan x="0" y="0">work</tspan></text></g><g transform="translate(23 12.981)"><rect width="57" height="22" rx="11" transform="translate(414.5 163.438)" fill="#d1c9e8"/><text transform="translate(429.5 177.437)" fill="#fff" font-size="8" font-family="AirbnbCerealApp-Bold, Airbnb Cereal App" font-weight="700"><tspan x="0" y="0">design</tspan></text></g><g transform="translate(90 -10.019)"><rect width="57" height="22" rx="11" transform="translate(414.5 163.438)" fill="#d1c9e8"/><text transform="translate(431.5 177.437)" fill="#fff" font-size="8" font-family="AirbnbCerealApp-Bold, Airbnb Cereal App" font-weight="700"><tspan x="0" y="0">music</tspan></text></g><g transform="translate(157 12.981)"><rect width="57" height="22" rx="11" transform="translate(414.5 163.438)" fill="#d1c9e8"/><text transform="translate(424.5 177.437)" fill="#fff" font-size="8" font-family="AirbnbCerealApp-Bold, Airbnb Cereal App" font-weight="700"><tspan x="0" y="0">shopping</tspan></text></g><g transform="translate(193 47.981)"><rect width="57" height="22" rx="11" transform="translate(424.5 163.438)" fill="#d1c9e8"/><text transform="translate(443.5 177.437)" fill="#fff" font-size="8" font-family="AirbnbCerealApp-Bold, Airbnb Cereal App" font-weight="700"><tspan x="0" y="0">code</tspan></text></g></g></g></g></svg>